SplineFontDB: 3.0
FontName: Monda-LightItalic
FullName: Monda Light Italic
FamilyName: Monda
Weight: Light
Copyright: Digitized data Copyright (c) 2011-2013, vernon adams.
Version: 2.0
ItalicAngle: -10
UnderlinePosition: 0
UnderlineWidth: 0
Ascent: 1638
Descent: 410
UFOAscent: 2030
UFODescent: -675
LayerCount: 2
Layer: 0 0 "Back"  1
Layer: 1 0 "Fore"  0
FSType: 0
OS2Version: 0
OS2_WeightWidthSlopeOnly: 0
OS2_UseTypoMetrics: 1
CreationTime: 1392006028
ModificationTime: 1392006793
PfmFamily: 17
TTFWeight: 300
TTFWidth: 5
LineGap: 0
VLineGap: 0
OS2TypoAscent: 1999
OS2TypoAOffset: 0
OS2TypoDescent: -572
OS2TypoDOffset: 0
OS2TypoLinegap: 0
OS2WinAscent: 1999
OS2WinAOffset: 0
OS2WinDescent: 572
OS2WinDOffset: 0
HheadAscent: 1999
HheadAOffset: 0
HheadDescent: -572
HheadDOffset: 0
OS2Vendor: 'NeWT'
Lookup: 4 0 1 "ligaStandardLigatureslookup0"  {"ligaStandardLigatureslookup0 subtable"  } ['liga' ('latn' <'dflt' > 'grek' <'dflt' > 'DFLT' <'dflt' > ) ]
Lookup: 6 0 0 "loclLocalizedFormsinLatinlookup"  {"loclLocalizedFormsinLatinlookup contextual 0"  "loclLocalizedFormsinLatinlookup contextual 1"  } ['locl' ('latn' <'dflt' 'CAT ' > ) ]
Lookup: 4 0 0 "Ligature Substitution lookup 2"  {"Ligature Substitution lookup 2 subtable"  } []
Lookup: 4 0 0 "Ligature Substitution lookup 3"  {"Ligature Substitution lookup 3 subtable"  } []
Lookup: 1 0 0 "sub_single_locllatn_0"  {"sub_single_locllatn_0 subtable"  } ['locl' ('latn' <'dflt' 'ROM ' > ) ]
Lookup: 1 0 0 "sub_single_locllatn_2"  {"sub_single_locllatn_2 subtable"  } ['locl' ('latn' <'dflt' 'MOL ' > ) ]
Lookup: 1 0 0 "sub_single_locllatn_4"  {"sub_single_locllatn_4 subtable"  } ['locl' ('latn' <'dflt' 'KAZ ' > ) ]
Lookup: 1 0 0 "sub_single_locllatn_6"  {"sub_single_locllatn_6 subtable"  } ['locl' ('latn' <'dflt' 'TAT ' > ) ]
Lookup: 1 0 0 "sub_single_locllatn_8"  {"sub_single_locllatn_8 subtable"  } ['locl' ('latn' <'dflt' 'TRK ' > ) ]

StartChar: A
Encoding: 65 65 0
Width: 1361
VWidth: 0
Flags: HW
PickledData: "(dp1
S'org.robofab.postScriptHintData'
p2
(dp3
s."
AnchorPoint: "ogonek" 1087 0 basechar 0
AnchorPoint: "top" 803 1428 basechar 0
LayerCount: 2
Fore
SplineSet
-39 0 m 257
 111 0 l 257
 268 283 l 257
 950 283 l 257
 1007 0 l 257
 1148 0 l 257
 861 1428 l 257
 754 1428 l 257
 -39 0 l 257
323 393 m 257
 777 1229 l 257
 935 393 l 257
 323 393 l 257
EndSplineSet
EndChar

StartChar: AE
Encoding: 198 198 1
Width: 1597
VWidth: 0
Flags: HW
PickledData: "(dp1
S'org.robofab.postScriptHintData'
p2
(dp3
s."
AnchorPoint: "top" 1096 1428 basechar 0
LayerCount: 2
Fore
SplineSet
-18 5 m 257
 121 0 l 257
 241 283 l 257
 787 283 l 257
 737 0 l 257
 1342 0 l 257
 1361 104 l 257
 893 104 l 257
 993 675 l 257
 1397 675 l 257
 1417 788 l 257
 1013 788 l 257
 1108 1324 l 257
 1568 1324 l 257
 1586 1427 l 257
 590 1427 l 257
 -18 5 l 257
282 381 m 257
 665 1324 l 257
 971 1324 l 257
 804 381 l 257
 282 381 l 257
EndSplineSet
EndChar

StartChar: B
Encoding: 66 66 18
Width: 1377
VWidth: 0
Flags: HW
PickledData: "(dp1
S'org.robofab.postScriptHintData'
p2
(dp3
s."
AnchorPoint: "top" 790 1428 basechar 0
LayerCount: 2
Fore
SplineSet
96 0 m 257
 620 0 l 258
 964 0 1137 115 1191 389 c 256
 1195 415 1198 440 1198 464 c 0
 1198 606 1122 716 1003 754 c 257
 1134 805 1204 912 1228 1026 c 257
 1237 1076 1243 1123 1243 1165 c 0
 1243 1328 1158 1428 845 1428 c 258
 348 1428 l 257
 96 0 l 257
261 114 m 257
 363 692 l 257
 812 692 l 258
 1000 692 1061 583 1061 475 c 0
 1061 457 1059 438 1056 420 c 256
 1011 165 869 114 649 114 c 258
 261 114 l 257
1100 1131 m 0
 1100 935 1020 804 792 804 c 258
 383 804 l 257
 472 1308 l 257
 786 1308 l 258
 1010 1308 1100 1279 1100 1131 c 0
EndSplineSet
EndChar

StartChar: C
Encoding: 67 67 20
Width: 1424
VWidth: 0
Flags: HW
PickledData: "(dp1
S'org.robofab.postScriptHintData'
p2
(dp3
s."
AnchorPoint: "bot" 639 0 basechar 0
AnchorPoint: "top" 877 1428 basechar 0
LayerCount: 2
Fore
SplineSet
1194 1143 m 0
 1194 1107 1188 1056 1179 1009 c 257
 1311 1016 l 257
 1321 1066 1327 1121 1327 1163 c 0
 1327 1369 1204 1448 871 1448 c 256
 412 1448 281 1229 226 918 c 258
 150 487 l 258
 140 429 134 375 134 325 c 0
 134 111 245 -20 616 -20 c 256
 1055 -20 1145 115 1205 413 c 257
 1074 413 l 257
 1021 124 917 100 643 100 c 256
 406 100 279 149 279 344 c 0
 279 377 283 414 290 456 c 258
 378 956 l 258
 429 1245 575 1329 850 1329 c 256
 1082 1329 1194 1319 1194 1143 c 0
EndSplineSet
EndChar

StartChar: D
Encoding: 68 68 27
Width: 1497
VWidth: 0
Flags: HW
PickledData: "(dp1
S'org.robofab.postScriptHintData'
p2
(dp3
s."
AnchorPoint: "mid" 353 751 basechar 0
AnchorPoint: "top" 804 1428 basechar 0
LayerCount: 2
Fore
SplineSet
259 101 m 257
 475 1325 l 257
 850 1325 l 258
 1032 1325 1215 1294 1215 1059 c 0
 1215 1028 1212 993 1205 954 c 258
 1118 457 l 258
 1060 130 842 101 634 101 c 258
 259 101 l 257
96 0 m 257
 633 0 l 258
 991 0 1205 143 1262 466 c 258
 1349 958 l 258
 1356 996 1359 1033 1359 1068 c 0
 1359 1280 1230 1428 882 1428 c 258
 348 1428 l 257
 96 0 l 257
EndSplineSet
EndChar

StartChar: Delta
Encoding: 916 916 33
Width: 1433
VWidth: 0
Flags: HW
PickledData: "(dp1
S'org.robofab.postScriptHintData'
p2
(dp3
s."
LayerCount: 2
Fore
SplineSet
67 0 m 257
 1105 0 l 257
 911 1428 l 257
 758 1428 l 257
 67 0 l 257
293 110 m 257
 829 1229 l 257
 972 110 l 257
 293 110 l 257
EndSplineSet
EndChar

StartChar: E
Encoding: 69 69 36
Width: 1218
VWidth: 0
Flags: HW
PickledData: "(dp1
S'org.robofab.postScriptHintData'
p2
(dp3
s."
AnchorPoint: "bot" 543 0 basechar 0
AnchorPoint: "ogonek" 729 0 basechar 0
AnchorPoint: "top" 812 1428 basechar 0
LayerCount: 2
Fore
SplineSet
96 0 m 257
 973 0 l 257
 992 106 l 257
 259 106 l 257
 361 684 l 257
 996 684 l 257
 1015 796 l 257
 380 796 l 257
 473 1322 l 257
 1193 1322 l 257
 1212 1428 l 257
 348 1428 l 257
 96 0 l 257
EndSplineSet
EndChar

StartChar: Eng
Encoding: 330 330 47
Width: 1547
VWidth: 0
Flags: HW
PickledData: "(dp1
S'org.robofab.postScriptHintData'
p2
(dp3
s."
LayerCount: 2
Fore
SplineSet
615 -368 m 257
 879 -368 1179 -283 1246 98 c 258
 1480 1427 l 257
 1357 1427 l 257
 1179 416 l 257
 493 1427 l 257
 383 1427 l 257
 132 0 l 257
 255 0 l 257
 461 1169 l 257
 1129 212 l 257
 1112 114 l 257
 1053 -220 862 -233 606 -256 c 257
 615 -368 l 257
EndSplineSet
EndChar

StartChar: Euro
Encoding: 8364 8364 51
Width: 1442
VWidth: 0
Flags: HW
PickledData: "(dp1
S'org.robofab.postScriptHintData'
p2
(dp3
s."
LayerCount: 2
Fore
SplineSet
738 838 m 257
 756 942 l 257
 14 942 l 257
 -4 838 l 257
 738 838 l 257
681 516 m 257
 699 620 l 257
 -43 620 l 257
 -61 516 l 257
 681 516 l 257
EndSplineSet
Refer: 20 67 N 1 0 0 1 0 0 2
EndChar

StartChar: F
Encoding: 70 70 52
Width: 1137
VWidth: 0
Flags: HW
PickledData: "(dp1
S'org.robofab.postScriptHintData'
p2
(dp3
s."
AnchorPoint: "top" 757 1428 basechar 0
LayerCount: 2
Fore
SplineSet
96 0 m 257
 239 0 l 257
 359 682 l 257
 960 682 l 257
 980 794 l 257
 379 794 l 257
 473 1324 l 257
 1107 1324 l 257
 1125 1428 l 257
 348 1428 l 257
 96 0 l 257
EndSplineSet
EndChar

StartChar: G
Encoding: 71 71 54
Width: 1516
VWidth: 0
Flags: HW
PickledData: "(dp1
S'org.robofab.postScriptHintData'
p2
(dp3
s."
AnchorPoint: "bot" 658 0 basechar 0
AnchorPoint: "top" 874 1428 basechar 0
LayerCount: 2
Fore
SplineSet
639 -20 m 256
 905 -20 1083 69 1152 292 c 257
 1112 0 l 257
 1194 0 l 257
 1321 722 l 257
 788 722 l 257
 768 604 l 257
 1138 604 l 257
 1112 456 l 258
 1061 167 938 100 660 100 c 256
 422 100 286 149 286 349 c 0
 286 381 289 416 296 456 c 258
 384 956 l 258
 435 1245 602 1329 876 1329 c 256
 1133 1329 1241 1319 1241 1138 c 0
 1241 1112 1238 1081 1234 1047 c 258
 1231 1024 l 257
 1352 1035 l 257
 1356 1065 l 258
 1361 1100 1364 1133 1364 1163 c 0
 1364 1342 1264 1448 897 1448 c 256
 439 1448 288 1229 233 918 c 258
 157 487 l 258
 148 433 142 383 142 336 c 0
 142 116 262 -20 639 -20 c 256
EndSplineSet
EndChar

StartChar: H
Encoding: 72 72 61
Width: 1444
VWidth: 0
Flags: HW
PickledData: "(dp1
S'org.robofab.postScriptHintData'
p2
(dp3
s."
AnchorPoint: "top" 824 1428 basechar 0
LayerCount: 2
Fore
SplineSet
86 0 m 257
 229 0 l 257
 350 685 l 257
 1084 685 l 257
 963 0 l 257
 1106 0 l 257
 1358 1428 l 257
 1215 1428 l 257
 1101 782 l 257
 367 782 l 257
 481 1428 l 257
 338 1428 l 257
 86 0 l 257
EndSplineSet
EndChar

StartChar: Hbar
Encoding: 294 294 62
Width: 1444
VWidth: 0
Flags: HW
PickledData: "(dp1
S'org.robofab.postScriptHintData'
p2
(dp3
s."
LayerCount: 2
Fore
SplineSet
190 1053 m 257
 1363 1053 l 257
 1377 1133 l 257
 204 1133 l 257
 190 1053 l 257
EndSplineSet
Refer: 61 72 N 1 0 0 1 0 0 2
EndChar

StartChar: I
Encoding: 73 73 64
Width: 1122
VWidth: 0
Flags: HW
PickledData: "(dp1
S'org.robofab.postScriptHintData'
p2
(dp3
s."
AnchorPoint: "ogonek" 550 0 basechar 0
AnchorPoint: "top" 677 1428 basechar 0
LayerCount: 2
Fore
SplineSet
83 0 m 257
 787 0 l 257
 806 107 l 257
 526 107 l 257
 740 1322 l 257
 1020 1322 l 257
 1039 1428 l 257
 335 1428 l 257
 316 1322 l 257
 596 1322 l 257
 382 107 l 257
 102 107 l 257
 83 0 l 257
EndSplineSet
EndChar

StartChar: J
Encoding: 74 74 78
Width: 1196
VWidth: 0
Flags: HW
PickledData: "(dp1
S'org.robofab.postScriptHintData'
p2
(dp3
s."
AnchorPoint: "top" 777 1428 basechar 0
LayerCount: 2
Fore
SplineSet
406 -12 m 256
 727 -12 864 168 911 436 c 258
 1086 1428 l 257
 363 1428 l 257
 340 1300 l 257
 920 1300 l 257
 767 431 l 258
 728 209 624 111 430 111 c 256
 258 111 92 180 76 188 c 257
 9 72 l 257
 32 54 223 -12 406 -12 c 256
EndSplineSet
EndChar

StartChar: K
Encoding: 75 75 80
Width: 1387
VWidth: 0
Flags: HW
PickledData: "(dp1
S'org.robofab.postScriptHintData'
p2
(dp3
s."
AnchorPoint: "bot" 539 0 basechar 0
AnchorPoint: "top" 845 1428 basechar 0
LayerCount: 2
Fore
SplineSet
96 0 m 257
 239 0 l 257
 320 457 l 257
 619 726 l 257
 1009 0 l 257
 1165 0 l 257
 722 794 l 257
 1393 1428 l 257
 1241 1428 l 257
 344 595 l 257
 491 1428 l 257
 348 1428 l 257
 96 0 l 257
EndSplineSet
EndChar

StartChar: L
Encoding: 76 76 83
Width: 1116
VWidth: 0
Flags: HW
PickledData: "(dp1
S'org.robofab.postScriptHintData'
p2
(dp3
s."
AnchorPoint: "mid" 229 673 basechar 0
AnchorPoint: "bot" 477 0 basechar 0
AnchorPoint: "top" 812 1428 basechar 0
LayerCount: 2
Fore
SplineSet
96 0 m 257
 907 0 l 257
 926 109 l 257
 258 109 l 257
 491 1428 l 257
 348 1428 l 257
 96 0 l 257
EndSplineSet
EndChar

StartChar: Lslash
Encoding: 321 321 90
Width: 1129
VWidth: 0
Flags: HW
PickledData: "(dp1
S'org.robofab.postScriptHintData'
p2
(dp3
s."
LayerCount: 2
Fore
SplineSet
12 500 m 257
 665 871 l 257
 687 995 l 257
 32 614 l 257
 12 500 l 257
EndSplineSet
Refer: 83 76 N 1 0 0 1 0 0 2
EndChar

StartChar: M
Encoding: 77 77 91
Width: 1694
VWidth: 0
Flags: HW
PickledData: "(dp1
S'org.robofab.postScriptHintData'
p2
(dp3
s."
AnchorPoint: "top" 953 1428 basechar 0
LayerCount: 2
Fore
SplineSet
96 0 m 257
 236 0 l 257
 436 1135 l 257
 754 452 l 257
 853 452 l 257
 1410 1139 l 257
 1209 0 l 257
 1346 0 l 257
 1598 1428 l 257
 1513 1428 l 257
 828 594 l 257
 447 1428 l 257
 348 1428 l 257
 96 0 l 257
EndSplineSet
EndChar

StartChar: N
Encoding: 78 78 93
Width: 1544
VWidth: 0
Flags: HW
PickledData: "(dp1
S'org.robofab.postScriptHintData'
p2
(dp3
s."
AnchorPoint: "bot" 608 0 basechar 0
AnchorPoint: "top" 883 1428 basechar 0
LayerCount: 2
Fore
SplineSet
96 0 m 257
 219 0 l 257
 425 1169 l 257
 1043 0 l 257
 1196 0 l 257
 1448 1428 l 257
 1323 1428 l 257
 1104 186 l 257
 459 1428 l 257
 348 1428 l 257
 96 0 l 257
EndSplineSet
EndChar

StartChar: O
Encoding: 79 79 100
Width: 1500
VWidth: 0
Flags: HW
PickledData: "(dp1
S'org.robofab.postScriptHintData'
p2
(dp3
s."
AnchorPoint: "ogonek" 653 0 basechar 0
AnchorPoint: "top" 884 1428 basechar 0
LayerCount: 2
Fore
SplineSet
650 100 m 256
 413 100 283 144 283 338 c 0
 283 370 287 406 294 447 c 258
 385 963 l 258
 436 1253 592 1329 866 1329 c 256
 1099 1329 1217 1276 1217 1083 c 0
 1217 1048 1213 1008 1205 963 c 258
 1114 447 l 258
 1063 159 928 100 650 100 c 256
629 -20 m 256
 1068 -20 1211 189 1265 490 c 258
 1340 916 l 258
 1350 974 1356 1029 1356 1080 c 0
 1356 1301 1245 1448 887 1448 c 256
 431 1448 289 1238 235 928 c 258
 155 477 l 258
 145 422 140 371 140 324 c 0
 140 109 256 -20 629 -20 c 256
EndSplineSet
EndChar

StartChar: OE
Encoding: 338 338 101
Width: 1511
VWidth: 0
Flags: HW
PickledData: "(dp1
S'org.robofab.postScriptHintData'
p2
(dp3
s."
LayerCount: 2
Fore
SplineSet
684 0 m 258
 1208 0 l 257
 1230 126 l 257
 764 126 l 257
 859 663 l 257
 1264 663 l 257
 1286 788 l 257
 881 788 l 257
 972 1301 l 257
 1425 1301 l 257
 1447 1428 l 257
 1276 1428 1104 1428 933 1428 c 256
 432 1428 284 1209 229 894 c 257
 161 512 l 258
 152 459 146 409 146 363 c 0
 146 142 269 0 684 0 c 258
692 125 m 258
 461 125 309 166 309 385 c 0
 309 419 313 457 320 500 c 258
 393 915 l 258
 450 1234 634 1305 899 1305 c 258
 812 1305 l 257
 604 125 l 257
 692 125 l 258
EndSplineSet
EndChar

StartChar: Omega
Encoding: 937 937 112
Width: 1557
VWidth: 0
Flags: HW
PickledData: "(dp1
S'org.robofab.postScriptHintData'
p2
(dp3
s."
LayerCount: 2
Fore
SplineSet
907 1455 m 256
 564 1455 319 1344 205 698 c 256
 187 598 179 514 179 444 c 0
 179 243 248 155 361 102 c 257
 121 102 l 257
 103 0 l 257
 546 0 l 257
 565 110 l 257
 399 161 316 248 316 461 c 0
 316 530 325 612 342 710 c 256
 439 1258 607 1324 884 1324 c 256
 1098 1324 1238 1283 1238 991 c 0
 1238 915 1229 823 1209 710 c 256
 1138 308 1019 177 774 110 c 257
 755 0 l 257
 1198 0 l 257
 1216 102 l 257
 977 102 l 257
 1152 173 1273 309 1342 698 c 256
 1363 818 1373 918 1373 1004 c 0
 1373 1381 1181 1455 907 1455 c 256
EndSplineSet
EndChar

StartChar: Oslash
Encoding: 216 216 114
Width: 1510
VWidth: 0
Flags: HW
PickledData: "(dp1
S'org.robofab.postScriptHintData'
p2
(dp3
s."
LayerCount: 2
Fore
SplineSet
172 -140 m 257
 1360 1564 l 257
 1284 1600 l 257
 122 -97 l 257
 172 -140 l 257
EndSplineSet
Refer: 100 79 N 1 0 0 1 0 0 2
EndChar

StartChar: P
Encoding: 80 80 117
Width: 1277
VWidth: 0
Flags: HW
PickledData: "(dp1
S'org.robofab.postScriptHintData'
p2
(dp3
s."
AnchorPoint: "top" 835 1428 basechar 0
LayerCount: 2
Fore
SplineSet
96 0 m 257
 241 0 l 257
 336 541 l 257
 781 541 l 258
 943 541 1140 634 1201 983 c 256
 1210 1034 1214 1079 1214 1120 c 0
 1214 1344 1088 1428 925 1428 c 258
 348 1428 l 257
 96 0 l 257
357 656 m 257
 472 1310 l 257
 897 1310 l 258
 1028 1310 1060 1224 1060 1128 c 0
 1060 1074 1050 1017 1042 969 c 256
 1019 837 970 656 780 656 c 258
 357 656 l 257
EndSplineSet
EndChar

StartChar: Q
Encoding: 81 81 119
Width: 1494
VWidth: 0
Flags: HW
PickledData: "(dp1
S'org.robofab.postScriptHintData'
p2
(dp3
s."
LayerCount: 2
Fore
SplineSet
811 -394 m 257
 923 -317 l 257
 779 -16 l 257
 1132 15 1248 212 1297 490 c 258
 1373 916 l 258
 1383 974 1389 1029 1389 1080 c 0
 1389 1301 1278 1448 920 1448 c 256
 464 1448 322 1238 268 928 c 258
 188 477 l 258
 178 422 173 371 173 324 c 0
 173 115 282 -14 628 -21 c 257
 811 -394 l 257
683 100 m 256
 446 100 316 144 316 338 c 0
 316 370 320 406 327 447 c 258
 418 963 l 258
 469 1253 625 1329 899 1329 c 256
 1132 1329 1250 1276 1250 1083 c 0
 1250 1048 1246 1008 1238 963 c 258
 1147 447 l 258
 1096 159 961 100 683 100 c 256
EndSplineSet
EndChar

StartChar: R
Encoding: 82 82 120
Width: 1428
VWidth: 0
Flags: HW
PickledData: "(dp1
S'org.robofab.postScriptHintData'
p2
(dp3
s."
AnchorPoint: "bot" 563 0 basechar 0
AnchorPoint: "top" 841 1428 basechar 0
LayerCount: 2
Fore
SplineSet
96 0 m 257
 241 0 l 257
 348 609 l 257
 348 609 860 610 878 610 c 257
 1074 0 l 257
 1220 0 l 257
 1013 642 l 257
 1105 680 1231 763 1276 1018 c 256
 1286 1074 1290 1122 1290 1164 c 0
 1290 1397 1149 1428 971 1428 c 258
 348 1428 l 257
 96 0 l 257
369 726 m 257
 472 1310 l 257
 950 1310 l 258
 1094 1310 1137 1248 1137 1144 c 0
 1137 1107 1131 1065 1123 1018 c 256
 1086 810 1020 726 831 726 c 258
 369 726 l 257
EndSplineSet
EndChar

StartChar: S
Encoding: 83 83 126
Width: 1318
VWidth: 0
Flags: HW
PickledData: "(dp1
S'org.robofab.postScriptHintData'
p2
(dp3
s."
AnchorPoint: "bot" 512 0 basechar 0
AnchorPoint: "top" 806 1428 basechar 0
LayerCount: 2
Fore
SplineSet
563 -20 m 256
 900 -20 1057 118 1106 396 c 256
 1114 440 1118 479 1118 512 c 0
 1118 649 1050 702 903 757 c 258
 515 900 l 258
 426 933 394 958 394 1026 c 0
 394 1047 398 1072 403 1103 c 256
 430 1256 503 1329 789 1329 c 256
 1043 1329 1138 1288 1207 1250 c 257
 1262 1359 l 257
 1200 1398 1067 1448 810 1448 c 256
 521 1448 310 1377 262 1103 c 256
 255 1064 252 1031 252 1002 c 0
 252 860 332 820 470 769 c 258
 852 628 l 258
 950 591 981 552 981 484 c 0
 981 461 977 436 972 406 c 256
 932 182 836 100 584 100 c 256
 359 100 226 148 125 225 c 257
 53 116 l 257
 173 37 290 -20 563 -20 c 256
EndSplineSet
EndChar

StartChar: Sigma
Encoding: 931 931 134
Width: 1132
VWidth: 0
Flags: HW
PickledData: "(dp1
S'org.robofab.postScriptHintData'
p2
(dp3
s."
LayerCount: 2
Fore
SplineSet
942 0 m 257
 964 124 l 257
 142 124 l 257
 724 740 l 257
 735 804 l 257
 342 1306 l 257
 1172 1306 l 257
 1194 1428 l 257
 250 1428 l 257
 228 1302 l 257
 620 763 l 257
 22 133 l 257
 -2 0 l 257
 942 0 l 257
EndSplineSet
EndChar

StartChar: T
Encoding: 84 84 135
Width: 1210
VWidth: 0
Flags: HW
PickledData: "(dp1
S'org.robofab.postScriptHintData'
p2
(dp3
s."
AnchorPoint: "mid" 609 748 basechar 0
AnchorPoint: "bot" 492 0 basechar 0
AnchorPoint: "top" 748 1428 basechar 0
LayerCount: 2
Fore
SplineSet
406 0 m 257
 550 0 l 257
 779 1300 l 257
 1201 1300 l 257
 1224 1428 l 257
 238 1428 l 257
 215 1300 l 257
 635 1300 l 257
 406 0 l 257
EndSplineSet
EndChar

StartChar: Thorn
Encoding: 222 222 140
Width: 1295
VWidth: 0
Flags: HW
PickledData: "(dp1
S'org.robofab.postScriptHintData'
p2
(dp3
s."
LayerCount: 2
Fore
SplineSet
84 0 m 257
 229 0 l 257
 285 316 l 257
 722 316 l 258
 884 316 1089 402 1150 750 c 256
 1158 798 1162 840 1162 879 c 0
 1162 1107 1026 1189 861 1189 c 258
 439 1189 l 257
 481 1428 l 257
 336 1428 l 257
 84 0 l 257
306 434 m 257
 417 1068 l 257
 832 1068 l 258
 969 1068 1002 980 1002 882 c 0
 1002 833 994 781 986 736 c 256
 963 605 912 434 722 434 c 258
 306 434 l 257
EndSplineSet
EndChar

StartChar: U
Encoding: 85 85 141
Width: 1497
VWidth: 0
Flags: HW
PickledData: "(dp1
S'org.robofab.postScriptHintData'
p2
(dp3
s."
AnchorPoint: "ogonek" 688 0 basechar 0
AnchorPoint: "top" 879 1428 basechar 0
LayerCount: 2
Fore
SplineSet
631 -20 m 256
 1057 -20 1205 209 1251 469 c 258
 1420 1427 l 257
 1275 1427 l 257
 1102 450 l 258
 1048 140 853 100 653 100 c 256
 477 100 296 133 296 357 c 0
 296 385 299 416 305 450 c 258
 478 1427 l 257
 333 1427 l 257
 165 476 l 258
 157 429 152 383 152 339 c 0
 152 137 258 -20 631 -20 c 256
EndSplineSet
EndChar

StartChar: V
Encoding: 86 86 155
Width: 1327
VWidth: 0
Flags: HW
PickledData: "(dp1
S'org.robofab.postScriptHintData'
p2
(dp3
s."
LayerCount: 2
Fore
SplineSet
499 0 m 257
 566 0 l 257
 1340 1428 l 257
 1194 1428 l 257
 585 298 l 257
 382 1428 l 257
 240 1428 l 257
 499 0 l 257
EndSplineSet
EndChar

StartChar: W
Encoding: 87 87 156
Width: 2068
VWidth: 0
Flags: HW
PickledData: "(dp1
S'org.robofab.postScriptHintData'
p2
(dp3
s."
AnchorPoint: "top" 1188 1428 basechar 0
LayerCount: 2
Fore
SplineSet
441 0 m 257
 525 0 l 257
 1167 1339 l 257
 1307 0 l 257
 1400 0 l 257
 2057 1428 l 257
 1934 1428 l 257
 1401 274 l 257
 1266 1428 l 257
 1072 1428 l 257
 529 281 l 257
 389 1428 l 257
 263 1428 l 257
 441 0 l 257
EndSplineSet
EndChar

StartChar: X
Encoding: 88 88 161
Width: 1326
VWidth: 0
Flags: HW
PickledData: "(dp1
S'org.robofab.postScriptHintData'
p2
(dp3
s."
LayerCount: 2
Fore
SplineSet
2 0 m 257
 155 0 l 257
 647 608 l 257
 920 0 l 257
 1073 0 l 257
 741 725 l 257
 1311 1428 l 257
 1161 1428 l 257
 691 839 l 257
 421 1428 l 257
 282 1428 l 257
 597 721 l 257
 2 0 l 257
EndSplineSet
EndChar

StartChar: Y
Encoding: 89 89 162
Width: 1305
VWidth: 0
Flags: HW
PickledData: "(dp1
S'org.robofab.postScriptHintData'
p2
(dp3
s."
AnchorPoint: "top" 796 1428 basechar 0
LayerCount: 2
Fore
SplineSet
454 0 m 257
 598 0 l 257
 698 569 l 257
 1365 1428 l 257
 1214 1428 l 257
 644 675 l 257
 345 1428 l 257
 192 1428 l 257
 554 569 l 257
 454 0 l 257
EndSplineSet
EndChar

StartChar: Z
Encoding: 90 90 169
Width: 1254
VWidth: 0
Flags: HW
PickledData: "(dp1
S'org.robofab.postScriptHintData'
p2
(dp3
s."
AnchorPoint: "top" 770 1428 basechar 0
LayerCount: 2
Fore
SplineSet
89 0 m 257
 944 0 l 257
 967 132 l 257
 275 132 l 257
 1163 1319 l 257
 1182 1428 l 257
 375 1428 l 257
 352 1300 l 257
 995 1300 l 257
 111 125 l 257
 89 0 l 257
EndSplineSet
EndChar

StartChar: a
Encoding: 97 97 173
Width: 1171
VWidth: 0
Flags: HW
PickledData: "(dp1
S'org.robofab.postScriptHintData'
p2
(dp3
sS'com.typemytype.robofont.layerData'
p4
(dp5
s."
AnchorPoint: "ogonek" 905 0 basechar 0
AnchorPoint: "top" 671 1052 basechar 0
LayerCount: 2
Fore
SplineSet
116 264 m 256
 111 233 107 205 107 178 c 0
 107 57 171 -21 372 -21 c 257
 589 -21 709 104 755 162 c 257
 768 54 800 -8 930 -8 c 258
 936 -8 l 257
 984 104 l 257
 919 104 891 116 891 174 c 0
 891 192 894 215 899 244 c 258
 981 712 l 258
 988 749 991 784 991 817 c 0
 991 973 911 1070 700 1070 c 256
 431 1070 276 1003 239 793 c 258
 229 736 l 257
 365 736 l 257
 374 786 l 258
 389 872 415 953 674 953 c 256
 825 953 859 896 859 831 c 0
 859 811 856 791 852 771 c 256
 841 707 834 675 797 663 c 258
 547 576 l 258
 229 465 141 408 116 264 c 256
407 92 m 256
 275 92 238 118 238 187 c 0
 238 208 242 233 247 262 c 256
 265 365 346 404 546 476 c 257
 817 571 l 257
 770 302 l 257
 734 194 549 92 407 92 c 256
EndSplineSet
EndChar

StartChar: acute
Encoding: 180 180 178
Width: 653
VWidth: 0
Flags: HW
PickledData: "(dp1
S'org.robofab.postScriptHintData'
p2
(dp3
s."
AnchorPoint: "top" 245 1052 mark 0
LayerCount: 2
Fore
SplineSet
229 1196 m 257
 344 1196 l 257
 648 1586 l 257
 449 1586 l 257
 229 1196 l 257
EndSplineSet
EndChar

StartChar: ae
Encoding: 230 230 182
Width: 1745
VWidth: 0
Flags: HW
PickledData: "(dp1
S'org.robofab.postScriptHintData'
p2
(dp3
s."
AnchorPoint: "top" 993 1052 basechar 0
LayerCount: 2
Fore
SplineSet
402 -21 m 256
 661 -21 774 90 809 207 c 257
 825 103 887 -21 1095 -21 c 256
 1385 -21 1482 71 1552 297 c 257
 1431 297 l 257
 1378 106 1304 94 1112 94 c 256
 970 94 903 154 903 268 c 0
 903 288 905 309 909 332 c 258
 940 509 l 257
 1597 509 l 257
 1643 766 l 258
 1646 786 1648 804 1648 822 c 0
 1648 979 1520 1070 1299 1070 c 256
 1146 1070 1036 1026 962 922 c 257
 949 1022 837 1070 696 1070 c 256
 428 1070 275 1011 232 767 c 258
 227 738 l 257
 363 738 l 257
 367 760 l 258
 386 868 404 953 662 953 c 256
 828 953 861 899 861 841 c 0
 861 815 854 791 851 767 c 257
 836 685 820 616 586 568 c 256
 238 498 125 426 100 286 c 256
 97 268 95 250 95 232 c 0
 95 99 185 -21 402 -21 c 256
419 98 m 256
 312 98 228 131 228 235 c 0
 228 401 377 395 570 450 c 256
 748 499 815 556 819 582 c 256
 820 585 819 588 818 590 c 257
 765 291 l 257
 727 180 560 98 419 98 c 256
960 620 m 257
 985 760 l 257
 1009 901 1099 957 1274 957 c 256
 1424 957 1526 926 1526 821 c 0
 1526 810 1525 799 1523 786 c 258
 1494 620 l 257
 960 620 l 257
EndSplineSet
EndChar

StartChar: ampersand
Encoding: 38 38 188
Width: 1432
VWidth: 0
Flags: HW
PickledData: "(dp1
S'org.robofab.postScriptHintData'
p2
(dp3
s."
LayerCount: 2
Fore
SplineSet
554 -20 m 256
 853 -20 980 45 1050 131 c 257
 1184 -17 l 257
 1269 60 l 257
 1120 232 l 257
 1145 296 1157 356 1169 423 c 256
 1188 533 1208 642 1227 752 c 257
 1111 752 l 257
 1051 415 l 258
 1049 399 1039 346 1036 332 c 257
 540 891 l 258
 479 961 452 1002 452 1068 c 0
 452 1087 454 1108 458 1132 c 256
 481 1261 576 1347 771 1347 c 256
 937 1347 997 1320 997 1228 c 0
 997 1211 995 1192 991 1171 c 258
 978 1100 l 257
 1101 1100 l 257
 1117 1192 l 258
 1122 1220 1124 1246 1124 1269 c 0
 1124 1437 993 1469 792 1469 c 256
 494 1469 352 1320 318 1128 c 256
 313 1102 311 1078 311 1057 c 0
 311 951 364 892 437 811 c 257
 234 754 155 627 119 426 c 256
 114 396 110 364 110 330 c 0
 110 167 192 -20 554 -20 c 256
575 99 m 256
 349 99 252 193 252 350 c 0
 252 376 255 403 260 432 c 256
 282 554 339 687 506 734 c 257
 977 210 l 257
 899 108 800 99 575 99 c 256
EndSplineSet
EndChar

StartChar: approxequal
Encoding: 8776 8776 190
Width: 795
VWidth: 0
Flags: HW
PickledData: "(dp1
S'org.robofab.postScriptHintData'
p2
(dp3
s."
LayerCount: 2
Fore
SplineSet
486 573 m 256
 597 573 699 647 725 798 c 257
 635 798 l 257
 625 741 592 706 517 706 c 256
 451 706 393 811 266 811 c 256
 155 811 51 736 25 586 c 257
 116 586 l 257
 126 642 158 677 233 677 c 256
 300 677 359 573 486 573 c 256
530 827 m 256
 641 827 743 901 770 1052 c 257
 680 1052 l 257
 670 995 637 960 562 960 c 256
 496 960 437 1065 310 1065 c 256
 199 1065 96 990 70 840 c 257
 161 840 l 257
 171 896 203 931 278 931 c 256
 345 931 403 827 530 827 c 256
EndSplineSet
EndChar

StartChar: asciicircum
Encoding: 94 94 193
Width: 1257
VWidth: 0
Flags: HW
PickledData: "(dp1
S'org.robofab.postScriptHintData'
p2
(dp3
s."
LayerCount: 2
Fore
SplineSet
146 695 m 257
 315 695 l 257
 667 1190 l 257
 848 695 l 257
 1021 695 l 257
 781 1283 l 257
 581 1283 l 257
 146 695 l 257
EndSplineSet
EndChar

StartChar: asciitilde
Encoding: 126 126 194
Width: 795
VWidth: 0
Flags: HW
PickledData: "(dp1
S'org.robofab.postScriptHintData'
p2
(dp3
s."
LayerCount: 2
Fore
SplineSet
523 1198 m 256
 634 1198 742 1302 768 1453 c 257
 678 1453 l 257
 668 1397 630 1332 555 1332 c 256
 489 1332 400 1466 273 1466 c 256
 162 1466 53 1362 27 1211 c 257
 118 1211 l 257
 128 1268 165 1332 240 1332 c 256
 307 1332 396 1198 523 1198 c 256
EndSplineSet
EndChar

StartChar: asterisk
Encoding: 42 42 195
Width: 1040
VWidth: 0
Flags: HW
PickledData: "(dp1
S'org.robofab.postScriptHintData'
p2
(dp3
s."
LayerCount: 2
Fore
SplineSet
356 599 m 257
 534 599 l 257
 561 912 l 257
 774 722 l 257
 896 875 l 257
 641 1017 l 257
 953 1134 l 257
 900 1295 l 257
 596 1121 l 257
 684 1446 l 257
 506 1446 l 257
 478 1133 l 257
 265 1323 l 257
 143 1170 l 257
 398 1028 l 257
 87 911 l 257
 139 750 l 257
 443 924 l 257
 356 599 l 257
EndSplineSet
EndChar

StartChar: at
Encoding: 64 64 196
Width: 2048
VWidth: 0
Flags: HW
PickledData: "(dp1
S'org.robofab.postScriptHintData'
p2
(dp3
s."
LayerCount: 2
Fore
SplineSet
976 -127 m 256
 1186 -127 1409 -77 1493 -28 c 257
 1465 76 l 257
 1392 26 1195 -24 979 -24 c 256
 674 -24 511 79 511 223 c 0
 511 235 512 247 514 259 c 258
 654 1053 l 258
 682 1208 872 1338 1181 1338 c 256
 1502 1338 1572 1242 1572 1113 c 0
 1572 1075 1566 1033 1558 991 c 257
 1556 991 1473 973 1277 927 c 256
 861 836 768 753 741 596 c 256
 737 576 735 555 735 535 c 0
 735 407 812 280 1044 280 c 256
 1296 280 1431 402 1491 477 c 257
 1494 394 1504 304 1662 304 c 257
 1703 421 l 257
 1616 421 1594 437 1594 477 c 0
 1594 484 1595 492 1596 501 c 258
 1596 501 1612 586 1692 1038 c 256
 1693 1045 1702 1071 1709 1106 c 256
 1712 1124 1715 1146 1715 1168 c 0
 1715 1292 1642 1459 1231 1459 c 257
 698 1459 533 1222 489 970 c 258
 374 322 l 258
 370 302 368 279 368 256 c 0
 368 92 478 -127 976 -127 c 256
1084 389 m 256
 969 389 907 440 907 541 c 0
 907 558 908 576 912 596 c 256
 928 688 984 737 1238 799 c 256
 1463 854 1508 861 1537 874 c 257
 1490 609 l 257
 1417 464 1213 389 1084 389 c 256
EndSplineSet
EndChar

StartChar: b
Encoding: 98 98 198
Width: 1187
VWidth: 0
Flags: HW
PickledData: "(dp1
S'org.robofab.postScriptHintData'
p2
(dp3
s."
AnchorPoint: "top" 696 1052 basechar 0
LayerCount: 2
Fore
SplineSet
469 -21 m 256
 754 -21 930 150 968 366 c 258
 1032 726 l 258
 1036 751 1039 775 1039 798 c 0
 1039 972 912 1070 689 1070 c 256
 584 1070 455 1034 378 992 c 257
 467 1500 l 257
 330 1500 l 257
 66 0 l 257
 176 0 l 257
 211 75 l 257
 254 46 337 -21 469 -21 c 256
472 101 m 256
 373 101 291 140 233 171 c 257
 357 878 l 257
 465 923 602 953 684 953 c 256
 816 953 902 898 902 788 c 0
 902 775 901 760 898 745 c 258
 826 337 l 258
 801 194 638 101 472 101 c 256
EndSplineSet
EndChar

StartChar: backslash
Encoding: 92 92 199
Width: 614
VWidth: 0
Flags: HW
PickledData: "(dp1
S'org.robofab.postScriptHintData'
p2
(dp3
s."
LayerCount: 2
Fore
SplineSet
297 0 m 257
 444 0 l 257
 324 1500 l 257
 171 1500 l 257
 297 0 l 257
EndSplineSet
EndChar

StartChar: bar
Encoding: 124 124 200
Width: 643
VWidth: 0
Flags: HW
PickledData: "(dp1
S'org.robofab.postScriptHintData'
p2
(dp3
s."
LayerCount: 2
Fore
SplineSet
101 -192 m 257
 240 -192 l 257
 542 1523 l 257
 403 1523 l 257
 101 -192 l 257
EndSplineSet
EndChar

StartChar: braceleft
Encoding: 123 123 202
Width: 928
VWidth: 0
Flags: HW
PickledData: "(dp1
S'org.robofab.postScriptHintData'
p2
(dp3
s."
LayerCount: 2
Fore
SplineSet
421 224 m 258
 447 374 l 258
 452 401 454 425 454 447 c 0
 454 550 406 595 368 605 c 257
 422 623 499 670 528 835 c 257
 554 977 l 257
 604 1266 618 1339 965 1339 c 257
 986 1456 l 257
 537 1456 471 1307 437 1118 c 256
 430 1076 425 1031 416 986 c 257
 361 673 331 660 108 660 c 257
 90 561 l 257
 250 561 306 539 306 420 c 0
 306 373 296 291 279 211 c 257
 266 137 245 55 245 -21 c 0
 245 -156 327 -234 688 -234 c 257
 709 -117 l 257
 462 -117 395 -87 395 31 c 0
 395 79 406 142 421 224 c 258
EndSplineSet
EndChar

StartChar: braceright
Encoding: 125 125 203
Width: 929
VWidth: 0
Flags: HW
PickledData: "(dp1
S'org.robofab.postScriptHintData'
p2
(dp3
s."
LayerCount: 2
Fore
SplineSet
-50 -234 m 257
 404 -234 460 -110 496 94 c 256
 503 135 509 182 518 225 c 257
 570 519 604 561 828 561 c 257
 846 660 l 257
 686 660 627 667 627 786 c 0
 627 861 662 1030 677 1118 c 256
 684 1155 689 1191 689 1224 c 0
 689 1360 608 1456 248 1456 c 257
 227 1339 l 257
 472 1339 538 1302 538 1179 c 0
 538 1128 527 1062 512 977 c 258
 486 835 l 258
 481 805 478 780 478 757 c 0
 478 654 527 620 566 605 c 257
 516 593 433 529 405 374 c 257
 379 224 l 257
 329 -57 319 -117 -29 -117 c 257
 -50 -234 l 257
EndSplineSet
EndChar

StartChar: bracketleft
Encoding: 91 91 204
Width: 724
VWidth: 0
Flags: HW
PickledData: "(dp1
S'org.robofab.postScriptHintData'
p2
(dp3
s."
LayerCount: 2
Fore
SplineSet
145 -68 m 257
 461 -68 l 257
 481 50 l 257
 302 50 l 257
 536 1375 l 257
 715 1375 l 257
 735 1491 l 257
 419 1491 l 257
 145 -68 l 257
EndSplineSet
EndChar

StartChar: bracketright
Encoding: 93 93 205
Width: 724
VWidth: 0
Flags: HW
PickledData: "(dp1
S'org.robofab.postScriptHintData'
p2
(dp3
s."
LayerCount: 2
Fore
SplineSet
87 -68 m 257
 403 -68 l 257
 677 1491 l 257
 361 1491 l 257
 341 1373 l 257
 519 1373 l 257
 285 48 l 257
 107 48 l 257
 87 -68 l 257
EndSplineSet
EndChar

StartChar: breve
Encoding: 728 728 206
Width: 512
VWidth: 0
Flags: HW
PickledData: "(dp1
S'org.robofab.postScriptHintData'
p2
(dp3
s."
AnchorPoint: "top" 229 1052 mark 0
LayerCount: 2
Fore
SplineSet
240 1173 m 256
 386 1173 469 1293 480 1357 c 257
 365 1357 l 257
 356 1307 303 1273 257 1273 c 256
 215 1273 178 1301 178 1343 c 0
 178 1347 178 1352 179 1357 c 257
 64 1357 l 257
 63 1351 62 1343 62 1336 c 0
 62 1270 109 1173 240 1173 c 256
EndSplineSet
EndChar

StartChar: brokenbar
Encoding: 166 166 207
Width: 617
VWidth: 0
Flags: HW
PickledData: "(dp1
S'org.robofab.postScriptHintData'
p2
(dp3
s."
LayerCount: 2
Fore
SplineSet
80 -195 m 257
 240 -195 l 257
 356 467 l 257
 196 467 l 257
 80 -195 l 257
269 877 m 257
 429 877 l 257
 556 1602 l 257
 396 1602 l 257
 269 877 l 257
EndSplineSet
EndChar

StartChar: bullet
Encoding: 8226 8226 208
Width: 946
VWidth: 0
Flags: HW
PickledData: "(dp1
S'org.robofab.postScriptHintData'
p2
(dp3
s."
LayerCount: 2
Fore
SplineSet
420 243 m 257
 667 243 738 334 773 534 c 256
 780 576 785 613 785 645 c 0
 785 770 720 827 523 827 c 256
 279 827 209 737 173 534 c 256
 166 492 161 455 161 423 c 0
 161 299 225 243 420 243 c 257
EndSplineSet
EndChar

StartChar: bulletoperator
Encoding: 8729 8729 209
Width: 600
VWidth: 0
Flags: HW
PickledData: "(dp1
S'org.robofab.postScriptHintData'
p2
(dp3
s."
LayerCount: 2
Fore
SplineSet
181 685 m 257
 374 685 l 257
 410 893 l 257
 217 893 l 257
 181 685 l 257
EndSplineSet
EndChar

StartChar: c
Encoding: 99 99 210
Width: 1075
VWidth: 0
Flags: HW
PickledData: "(dp1
S'org.robofab.postScriptHintData'
p2
(dp3
s."
AnchorPoint: "bot" 448 0 basechar 0
AnchorPoint: "top" 676 1052 basechar 0
LayerCount: 2
Fore
SplineSet
477 -21 m 256
 731 -21 856 59 923 268 c 257
 797 268 l 257
 748 122 704 94 493 94 c 256
 345 94 250 143 250 273 c 0
 250 291 252 311 256 332 c 258
 327 735 l 258
 355 894 456 953 645 953 c 256
 809 953 881 928 881 807 c 0
 881 783 878 756 873 724 c 257
 1008 739 l 257
 1014 771 1016 800 1016 827 c 0
 1016 1023 867 1070 663 1070 c 256
 411 1070 225 934 192 743 c 258
 123 354 l 258
 118 329 116 304 116 280 c 0
 116 112 228 -21 477 -21 c 256
EndSplineSet
EndChar

StartChar: caron
Encoding: 711 711 212
Width: 512
VWidth: 0
Flags: HW
PickledData: "(dp1
S'org.robofab.postScriptHintData'
p2
(dp3
s."
AnchorPoint: "top" 215 1052 mark 0
LayerCount: 2
Fore
SplineSet
290 1189 m 257
 537 1435 l 257
 391 1435 l 257
 257 1291 l 257
 167 1435 l 257
 17 1435 l 257
 185 1189 l 257
 290 1189 l 257
EndSplineSet
EndChar

StartChar: caron.alt
Encoding: 65536 -1 213
Width: 600
VWidth: 0
Flags: HW
PickledData: "(dp1
S'org.robofab.postScriptHintData'
p2
(dp3
s."
AnchorPoint: "caron.alt" 202 1052 mark 0
LayerCount: 2
Fore
SplineSet
665 1239 m 257
 730 1292 853 1410 885 1595 c 258
 913 1754 l 257
 695 1754 l 257
 659 1547 l 257
 785 1547 l 257
 762 1418 661 1335 607 1282 c 257
 665 1239 l 257
EndSplineSet
EndChar

StartChar: cedilla
Encoding: 184 184 218
Width: 512
VWidth: 0
Flags: HW
PickledData: "(dp1
S'org.robofab.postScriptHintData'
p2
(dp3
s."
AnchorPoint: "bot" 224 0 mark 0
LayerCount: 2
Fore
SplineSet
325 -263 m 0
 325 -331 266 -387 151 -387 c 256
 128 -387 104 -385 78 -380 c 257
 63 -464 l 257
 95 -469 126 -471 154 -471 c 256
 319 -471 417 -382 434 -288 c 256
 435 -281 436 -273 436 -266 c 0
 436 -185 362 -104 232 -80 c 257
 241 10 l 257
 205 10 l 257
 179 -140 l 257
 271 -143 325 -203 325 -263 c 0
EndSplineSet
EndChar

StartChar: cent
Encoding: 162 162 219
Width: 1112
VWidth: 0
Flags: HW
PickledData: "(dp1
S'org.robofab.postScriptHintData'
p2
(dp3
s."
LayerCount: 2
Fore
SplineSet
626 1017 m 257
 735 1017 l 257
 780 1269 l 257
 671 1269 l 257
 626 1017 l 257
411 -200 m 257
 520 -200 l 257
 565 52 l 257
 456 52 l 257
 411 -200 l 257
EndSplineSet
Refer: 210 99 N 1 0 0 1 0 0 2
EndChar

StartChar: circumflex
Encoding: 710 710 220
Width: 512
VWidth: 0
Flags: HW
PickledData: "(dp1
S'org.robofab.postScriptHintData'
p2
(dp3
s."
AnchorPoint: "top" 200 1052 mark 0
LayerCount: 2
Fore
SplineSet
-30 1206 m 257
 120 1206 l 257
 262 1350 l 257
 344 1206 l 257
 490 1206 l 257
 331 1452 l 257
 226 1452 l 257
 -30 1206 l 257
EndSplineSet
EndChar

StartChar: comma
Encoding: 44 44 222
Width: 565
VWidth: 0
Flags: HW
PickledData: "(dp1
S'org.robofab.postScriptHintData'
p2
(dp3
s."
LayerCount: 2
Fore
SplineSet
189 -307 m 257
 253 -255 376 -137 408 48 c 258
 436 207 l 257
 218 207 l 257
 182 0 l 257
 309 0 l 257
 286 -128 185 -211 130 -265 c 257
 189 -307 l 257
EndSplineSet
EndChar

StartChar: copyright
Encoding: 169 169 223
Width: 1789
VWidth: 0
Flags: HW
PickledData: "(dp1
S'org.robofab.postScriptHintData'
p2
(dp3
s."
LayerCount: 2
Fore
SplineSet
828 287 m 257
 1104 287 1177 422 1208 598 c 258
 1214 632 l 257
 1098 632 l 257
 1088 571 l 257
 1061 419 997 376 844 376 c 256
 713 376 641 408 641 514 c 0
 641 531 643 550 647 571 c 258
 703 890 l 258
 730 1042 818 1091 969 1091 c 256
 1095 1091 1151 1057 1151 959 c 0
 1151 939 1149 916 1144 890 c 258
 1133 826 l 257
 1250 836 l 257
 1255 861 l 258
 1262 899 1266 935 1266 968 c 0
 1266 1095 1205 1182 985 1182 c 256
 697 1182 611 1050 579 868 c 258
 530 590 l 258
 524 558 521 528 521 500 c 0
 521 371 592 287 828 287 c 257
783 82 m 256
 462 82 256 296 256 597 c 0
 256 637 259 679 267 722 c 256
 331 1086 645 1361 1009 1361 c 256
 1332 1361 1535 1148 1535 848 c 0
 1535 808 1532 765 1524 722 c 256
 1460 357 1149 82 783 82 c 256
764 -14 m 256
 1180 -14 1556 303 1630 722 c 256
 1638 769 1642 815 1642 859 c 0
 1642 1206 1393 1456 1024 1456 c 256
 611 1456 232 1139 158 722 c 256
 150 675 146 629 146 585 c 0
 146 236 397 -14 764 -14 c 256
EndSplineSet
EndChar

StartChar: currency
Encoding: 164 164 224
Width: 1163
VWidth: 0
Flags: HW
PickledData: "(dp1
S'org.robofab.postScriptHintData'
p2
(dp3
s."
LayerCount: 2
Fore
SplineSet
867 829 m 257
 1045 963 l 257
 1016 1015 l 257
 843 881 l 257
 790 951 718 985 627 985 c 256
 536 985 452 951 375 881 c 257
 250 1015 l 257
 201 963 l 257
 333 829 l 257
 294 773 274 715 266 671 c 256
 263 654 261 635 261 614 c 0
 261 582 265 547 277 513 c 257
 109 379 l 257
 138 327 l 257
 301 461 l 257
 354 391 426 357 517 357 c 256
 608 357 692 391 769 461 c 257
 884 327 l 257
 933 379 l 257
 811 513 l 257
 850 569 870 627 878 671 c 256
 881 688 883 707 883 728 c 0
 883 760 879 795 867 829 c 257
322 612 m 0
 322 821 485 937 619 937 c 256
 727 937 822 867 822 730 c 0
 822 521 659 405 525 405 c 256
 417 405 322 475 322 612 c 0
EndSplineSet
EndChar

StartChar: d
Encoding: 100 100 225
Width: 1183
VWidth: 0
Flags: HW
PickledData: "(dp1
S'org.robofab.postScriptHintData'
p2
(dp3
s."
AnchorPoint: "mid" 1005 1269 basechar 0
AnchorPoint: "caron.alt" 801 1052 basechar 0
AnchorPoint: "top" 661 1052 basechar 0
LayerCount: 2
Fore
SplineSet
435 -21 m 256
 543 -21 678 27 744 74 c 257
 763 0 l 257
 858 0 l 257
 1122 1500 l 257
 984 1500 l 257
 901 1029 l 257
 837 1053 723 1070 652 1070 c 256
 347 1070 189 946 150 724 c 258
 83 342 l 258
 78 313 75 284 75 257 c 0
 75 100 168 -21 435 -21 c 256
456 101 m 256
 321 101 213 163 213 284 c 0
 213 296 214 309 216 322 c 258
 293 754 l 258
 318 897 459 953 621 953 c 256
 717 953 817 938 879 905 c 257
 751 176 l 257
 702 149 582 101 456 101 c 256
EndSplineSet
EndChar

StartChar: dagger
Encoding: 8224 8224 226
Width: 810
VWidth: 0
Flags: HW
PickledData: "(dp1
S'org.robofab.postScriptHintData'
p2
(dp3
s."
LayerCount: 2
Fore
SplineSet
177 0 m 257
 355 0 l 257
 527 975 l 257
 802 975 l 257
 822 1088 l 257
 547 1088 l 257
 623 1519 l 257
 445 1519 l 257
 369 1088 l 257
 103 1088 l 257
 83 975 l 257
 349 975 l 257
 177 0 l 257
EndSplineSet
EndChar

StartChar: daggerdbl
Encoding: 8225 8225 227
Width: 886
VWidth: 0
Flags: HW
PickledData: "(dp1
S'org.robofab.postScriptHintData'
p2
(dp3
s."
LayerCount: 2
Fore
SplineSet
216 0 m 257
 394 0 l 257
 469 425 l 257
 779 425 l 257
 796 519 l 257
 486 519 l 257
 564 966 l 257
 874 966 l 257
 891 1061 l 257
 581 1061 l 257
 662 1519 l 257
 484 1519 l 257
 403 1061 l 257
 101 1061 l 257
 84 966 l 257
 386 966 l 257
 308 519 l 257
 6 519 l 257
 -11 425 l 257
 291 425 l 257
 216 0 l 257
EndSplineSet
EndChar

StartChar: degree
Encoding: 176 176 231
Width: 1073
VWidth: 0
Flags: HW
PickledData: "(dp1
S'org.robofab.postScriptHintData'
p2
(dp3
s."
LayerCount: 2
Fore
SplineSet
787 1138 m 0
 787 958 629 821 490 821 c 256
 377 821 289 913 289 1039 c 0
 289 1220 449 1356 584 1356 c 256
 697 1356 787 1265 787 1138 c 0
591 1407 m 256
 441 1407 229 1249 229 1034 c 0
 229 878 353 767 479 767 c 256
 631 767 845 923 845 1140 c 0
 845 1295 721 1407 591 1407 c 256
EndSplineSet
EndChar

StartChar: dieresis
Encoding: 168 168 232
Width: 1060
VWidth: 0
Flags: HW
PickledData: "(dp1
S'org.robofab.postScriptHintData'
p2
(dp3
s."
AnchorPoint: "top" 481 1052 mark 0
LayerCount: 2
Fore
SplineSet
231 1222 m 257
 402 1222 l 257
 428 1372 l 257
 257 1372 l 257
 231 1222 l 257
610 1222 m 257
 781 1222 l 257
 807 1372 l 257
 636 1372 l 257
 610 1222 l 257
EndSplineSet
EndChar

StartChar: divide
Encoding: 247 247 233
Width: 1038
VWidth: 0
Flags: HW
PickledData: "(dp1
S'org.robofab.postScriptHintData'
p2
(dp3
s."
LayerCount: 2
Fore
SplineSet
348 88 m 257
 540 88 l 257
 575 285 l 257
 383 285 l 257
 348 88 l 257
81 468 m 257
 933 468 l 257
 955 589 l 257
 103 589 l 257
 81 468 l 257
471 784 m 257
 663 784 l 257
 698 981 l 257
 506 981 l 257
 471 784 l 257
EndSplineSet
EndChar

StartChar: dollar
Encoding: 36 36 235
Width: 1316
VWidth: 0
Flags: HW
PickledData: "(dp1
S'org.robofab.postScriptHintData'
p2
(dp3
s."
LayerCount: 2
Fore
SplineSet
432 -408 m 257
 542 -408 l 257
 924 1758 l 257
 814 1758 l 257
 432 -408 l 257
EndSplineSet
Refer: 126 83 N 1 0 0 1 0 0 2
EndChar

StartChar: dotaccent
Encoding: 729 729 236
Width: 526
VWidth: 0
Flags: HW
PickledData: "(dp1
S'org.robofab.postScriptHintData'
p2
(dp3
s."
AnchorPoint: "top" 196 1052 mark 0
LayerCount: 2
Fore
SplineSet
158 1243 m 257
 296 1243 l 257
 328 1423 l 257
 190 1423 l 257
 158 1243 l 257
EndSplineSet
EndChar

StartChar: dotlessi
Encoding: 305 305 237
Width: 548
VWidth: 0
Flags: HW
PickledData: "(dp1
S'org.robofab.postScriptHintData'
p2
(dp3
s."
AnchorPoint: "ogonek" 208 0 basechar 0
AnchorPoint: "top" 383 1052 basechar 0
LayerCount: 2
Fore
SplineSet
112 0 m 257
 262 0 l 257
 448 1052 l 257
 298 1052 l 257
 112 0 l 257
EndSplineSet
EndChar

StartChar: dotlessj
Encoding: 567 567 238
Width: 548
VWidth: 0
Flags: HW
PickledData: "(dp1
S'org.robofab.postScriptHintData'
p2
(dp3
s."
AnchorPoint: "top" 423 1052 basechar 0
LayerCount: 2
Fore
SplineSet
-78 -359 m 257
 4 -356 l 258
 185 -349 250 -310 304 -7 c 258
 490 1052 l 257
 352 1052 l 257
 161 -32 l 258
 129 -213 105 -233 -11 -237 c 258
 -64 -239 l 257
 -78 -359 l 257
EndSplineSet
EndChar

StartChar: e
Encoding: 101 101 241
Width: 1112
VWidth: 0
Flags: HW
PickledData: "(dp1
S'org.robofab.postScriptHintData'
p2
(dp3
s."
AnchorPoint: "bot" 489 0 basechar 0
AnchorPoint: "ogonek" 601 0 basechar 0
AnchorPoint: "top" 657 1052 basechar 0
LayerCount: 2
Fore
SplineSet
469 -21 m 256
 769 -21 859 42 919 253 c 257
 802 253 l 257
 758 104 691 96 486 96 c 256
 304 96 251 148 251 258 c 0
 251 294 256 336 265 385 c 258
 289 519 l 257
 976 519 l 257
 1020 766 l 258
 1024 787 1025 807 1025 826 c 0
 1025 981 906 1070 668 1070 c 256
 349 1070 223 924 190 736 c 258
 131 397 l 258
 121 339 114 287 114 240 c 0
 114 72 197 -21 469 -21 c 256
307 622 m 257
 330 753 l 258
 355 894 470 953 644 953 c 256
 795 953 888 919 888 815 c 0
 888 804 887 792 885 779 c 258
 857 622 l 257
 307 622 l 257
EndSplineSet
EndChar

StartChar: eight
Encoding: 56 56 250
Width: 1148
VWidth: 0
Flags: HW
PickledData: "(dp1
S'org.robofab.postScriptHintData'
p2
(dp3
s."
LayerCount: 2
Fore
SplineSet
424 767 m 257
 257 698 42 553 42 270 c 0
 42 64 190 -20 443 -20 c 256
 738 -20 925 93 973 363 c 256
 977 389 980 412 980 435 c 0
 980 620 842 714 752 767 c 257
 883 838 1043 886 1080 1096 c 256
 1085 1125 1088 1152 1088 1176 c 0
 1088 1409 869 1451 706 1451 c 256
 520 1451 262 1399 207 1092 c 256
 203 1071 202 1051 202 1033 c 0
 202 879 326 831 424 767 c 257
464 100 m 256
 307 100 185 132 185 291 c 0
 185 312 188 335 192 361 c 256
 225 545 412 641 576 719 c 257
 698 648 837 563 837 410 c 0
 837 395 836 378 833 361 c 256
 795 141 644 100 464 100 c 256
592 812 m 257
 480 871 350 945 350 1068 c 0
 350 1078 351 1089 353 1100 c 256
 377 1238 472 1323 683 1323 c 256
 864 1323 939 1260 939 1151 c 0
 939 1135 937 1118 934 1100 c 256
 908 954 740 877 592 812 c 257
EndSplineSet
EndChar

StartChar: emdash
Encoding: 8212 8212 254
Width: 1185
VWidth: 0
Flags: HW
PickledData: "(dp1
S'org.robofab.postScriptHintData'
p2
(dp3
s."
LayerCount: 2
Fore
SplineSet
-10 413 m 257
 1172 413 l 257
 1194 543 l 257
 12 543 l 257
 -10 413 l 257
EndSplineSet
EndChar

StartChar: emptyset
Encoding: 8709 8709 255
Width: 1552
VWidth: 0
Flags: HW
PickledData: "(dp1
S'org.robofab.postScriptHintData'
p2
(dp3
s."
LayerCount: 2
Fore
SplineSet
686 144 m 256
 416 144 242 324 242 577 c 0
 242 611 245 646 251 682 c 256
 305 987 570 1219 876 1219 c 256
 1147 1219 1319 1039 1319 787 c 0
 1319 753 1315 718 1309 682 c 256
 1255 375 993 144 686 144 c 256
671 66 m 257
 1019 66 1333 331 1395 682 c 256
 1402 721 1405 760 1405 797 c 0
 1405 1088 1197 1296 888 1296 c 256
 542 1296 225 1031 163 682 c 256
 156 643 153 605 153 568 c 0
 153 275 364 66 671 66 c 257
103 44 m 257
 150 0 l 257
 1453 1283 l 257
 1406 1327 l 257
 103 44 l 257
EndSplineSet
EndChar

StartChar: endash
Encoding: 8211 8211 256
Width: 433
VWidth: 0
Flags: HW
PickledData: "(dp1
S'org.robofab.postScriptHintData'
p2
(dp3
s."
LayerCount: 2
Fore
SplineSet
-83 702 m 257
 494 702 l 257
 512 804 l 257
 -65 804 l 257
 -83 702 l 257
EndSplineSet
EndChar

StartChar: eng
Encoding: 331 331 257
Width: 1209
VWidth: 0
Flags: HW
PickledData: "(dp1
S'org.robofab.postScriptHintData'
p2
(dp3
s."
LayerCount: 2
Fore
SplineSet
574 -287 m 257
 862 -287 926 -138 993 243 c 258
 1083 756 l 258
 1087 781 1090 805 1090 829 c 0
 1090 960 1016 1070 767 1070 c 256
 610 1070 522 1028 440 962 c 257
 455 1052 l 257
 318 1052 l 257
 133 0 l 257
 270 0 l 257
 403 753 l 258
 420 853 503 953 738 953 c 256
 881 953 955 901 955 818 c 0
 955 809 954 799 952 789 c 258
 855 236 l 258
 843 169 835 112 826 63 c 256
 796 -106 765 -176 602 -176 c 256
 591 -176 579 -176 566 -175 c 257
 574 -287 l 257
EndSplineSet
EndChar

StartChar: equal
Encoding: 61 61 259
Width: 1472
VWidth: 0
Flags: HW
PickledData: "(dp1
S'org.robofab.postScriptHintData'
p2
(dp3
s."
LayerCount: 2
Fore
SplineSet
251 525 m 257
 1141 525 l 257
 1165 658 l 257
 275 658 l 257
 251 525 l 257
307 844 m 257
 1197 844 l 257
 1221 977 l 257
 331 977 l 257
 307 844 l 257
EndSplineSet
EndChar

StartChar: estimated
Encoding: 8494 8494 260
Width: 1195
VWidth: 0
Flags: HW
PickledData: "(dp1
S'org.robofab.postScriptHintData'
p2
(dp3
s."
LayerCount: 2
Fore
SplineSet
728 1232 m 256
 856 1232 971 1179 1023 1072 c 257
 972 779 l 257
 310 779 l 257
 362 1074 l 257
 458 1178 600 1232 728 1232 c 256
95 730 m 256
 87 687 83 645 83 605 c 0
 83 353 237 178 565 178 c 256
 771 178 921 267 1040 385 c 257
 1015 419 l 257
 878 296 701 240 569 240 c 256
 442 240 308 293 238 395 c 257
 295 715 l 257
 1107 715 l 257
 1117 770 1122 822 1122 871 c 0
 1122 1116 999 1280 734 1280 c 256
 414 1280 150 1041 95 730 c 256
EndSplineSet
EndChar

StartChar: eth
Encoding: 240 240 261
Width: 1066
VWidth: 0
Flags: HW
PickledData: "(dp1
S'org.robofab.postScriptHintData'
p2
(dp3
s."
LayerCount: 2
Fore
SplineSet
391 -18 m 256
 769 -18 796 147 823 308 c 257
 858 506 893 703 928 901 c 256
 939 960 950 1030 950 1100 c 0
 950 1216 920 1335 808 1414 c 257
 945 1545 l 257
 874 1594 l 257
 741 1461 l 257
 670 1479 602 1486 542 1486 c 256
 451 1486 380 1471 346 1462 c 257
 296 1357 l 257
 335 1363 394 1370 462 1370 c 256
 513 1370 570 1366 627 1355 c 257
 428 1143 l 257
 500 1094 l 257
 711 1316 l 257
 791 1253 836 1165 836 1046 c 0
 836 1000 826 947 818 905 c 257
 795 928 730 975 584 975 c 256
 321 975 150 846 118 663 c 258
 53 297 l 258
 49 272 46 249 46 226 c 0
 46 83 136 -18 391 -18 c 256
409 87 m 256
 288 87 182 124 182 248 c 0
 182 262 183 277 186 293 c 258
 253 676 l 258
 276 807 399 857 545 857 c 256
 605 857 747 841 792 811 c 257
 792 813 792 814 792 814 c 257
 779 814 693 312 685 279 c 256
 668 184 624 87 409 87 c 256
EndSplineSet
EndChar

StartChar: exclam
Encoding: 33 33 263
Width: 576
VWidth: 0
Flags: HW
PickledData: "(dp1
S'org.robofab.postScriptHintData'
p2
(dp3
s."
LayerCount: 2
Fore
SplineSet
74 0 m 257
 250 0 l 257
 282 183 l 257
 106 183 l 257
 74 0 l 257
200 348 m 257
 244 348 l 257
 244 348 404 881 500 1427 c 257
 332 1427 l 257
 236 881 200 348 200 348 c 257
EndSplineSet
EndChar

StartChar: f
Encoding: 102 102 265
Width: 784
VWidth: 0
Flags: HW
PickledData: "(dp1
S'org.robofab.postScriptHintData'
p2
(dp3
s."
AnchorPoint: "top" 488 1428 basechar 0
LayerCount: 2
Fore
SplineSet
177 0 m 257
 315 0 l 257
 481 940 l 257
 763 940 l 257
 782 1052 l 257
 500 1052 l 257
 539 1271 l 258
 553 1349 610 1399 723 1399 c 258
 858 1399 l 257
 860 1498 l 257
 745 1498 l 258
 550 1498 431 1442 402 1279 c 258
 362 1052 l 257
 165 1052 l 257
 146 940 l 257
 343 940 l 257
 177 0 l 257
EndSplineSet
EndChar

StartChar: firsttonechinese
Encoding: 713 713 271
Width: 514
VWidth: 0
Flags: HW
AnchorPoint: "top" 210 1052 mark 0
AnchorPoint: "mid" 257 1325 mark 0
LayerCount: 2
Fore
SplineSet
5 1265 m 257
 489 1265 l 257
 509 1376 l 257
 25 1376 l 257
 5 1265 l 257
EndSplineSet
EndChar

StartChar: five
Encoding: 53 53 272
Width: 1148
VWidth: 0
Flags: HW
PickledData: "(dp1
S'org.robofab.postScriptHintData'
p2
(dp3
s."
LayerCount: 2
Fore
SplineSet
832 519 m 0
 832 267 684 103 440 103 c 256
 270 103 163 170 93 221 c 257
 35 96 l 257
 136 37 241 -20 418 -20 c 256
 716 -20 904 158 952 434 c 256
 960 478 964 518 964 555 c 0
 964 791 812 883 629 883 c 256
 537 883 429 856 340 790 c 257
 475 1312 l 257
 1026 1312 l 257
 1047 1428 l 257
 373 1428 l 257
 210 693 l 257
 309 661 l 257
 403 730 509 760 607 760 c 256
 731 760 832 693 832 519 c 0
EndSplineSet
EndChar

StartChar: florin
Encoding: 402 402 275
Width: 810
VWidth: 0
Flags: HW
PickledData: "(dp1
S'org.robofab.postScriptHintData'
p2
(dp3
s."
LayerCount: 2
Fore
SplineSet
27 -187 m 256
 167 -187 307 -136 346 85 c 258
 451 676 l 257
 660 676 l 257
 674 755 l 257
 465 755 l 257
 536 1159 l 258
 560 1298 618 1373 753 1373 c 256
 768 1373 783 1372 800 1370 c 257
 814 1447 l 257
 783 1450 752 1453 721 1453 c 256
 580 1453 446 1401 400 1139 c 258
 333 755 l 257
 134 755 l 257
 120 676 l 257
 319 676 l 257
 209 56 l 258
 187 -70 89 -98 -40 -98 c 258
 -54 -98 l 257
 -68 -180 l 257
 -37 -184 -5 -187 27 -187 c 256
EndSplineSet
EndChar

StartChar: foundryicon
Encoding: 65541 -1 276
Width: 1347
VWidth: 0
Flags: HW
PickledData: "(dp1
S'org.robofab.postScriptHintData'
p2
(dp3
s."
LayerCount: 2
Fore
SplineSet
449 405 m 257
 496 672 l 257
 602 672 l 257
 746 523 l 257
 772 672 l 257
 878 672 l 257
 831 405 l 257
 725 405 l 257
 581 552 l 257
 555 405 l 257
 449 405 l 257
173 2 m 257
 611 278 l 257
 959 2 l 257
 896 461 l 257
 1339 755 l 257
 854 755 l 257
 776 1215 l 257
 545 755 l 257
 60 755 l 257
 397 461 l 257
 173 2 l 257
EndSplineSet
EndChar

StartChar: four
Encoding: 52 52 277
Width: 1148
VWidth: 0
Flags: HW
PickledData: "(dp1
S'org.robofab.postScriptHintData'
p2
(dp3
s."
LayerCount: 2
Fore
SplineSet
597 0 m 257
 722 0 l 257
 790 384 l 257
 998 384 l 257
 1017 493 l 257
 809 493 l 257
 867 822 l 257
 742 822 l 257
 684 493 l 257
 215 493 l 257
 865 1428 l 257
 724 1428 l 257
 62 494 l 257
 43 384 l 257
 665 384 l 257
 597 0 l 257
EndSplineSet
Substitution2: "supsSuperscriptlookup11 subtable" uni2074
EndChar

StartChar: uni2074
Encoding: 8308 8308 278
Width: 1010
VWidth: 0
Flags: HW
PickledData: "(dp1
S'org.robofab.postScriptHintData'
p2
(dp3
s."
LayerCount: 2
Fore
SplineSet
534 717 m 257
 622 717 l 257
 659 928 l 257
 792 928 l 257
 805 999 l 257
 672 999 l 257
 710 1216 l 257
 622 1216 l 257
 584 999 l 257
 286 999 l 257
 634 1524 l 257
 545 1524 l 257
 175 982 l 257
 165 928 l 257
 571 928 l 257
 534 717 l 257
EndSplineSet
EndChar

StartChar: fraction
Encoding: 8260 8260 279
Width: 677
VWidth: 0
Flags: HW
PickledData: "(dp1
S'org.robofab.postScriptHintData'
p2
(dp3
s."
LayerCount: 2
Fore
SplineSet
-139 0 m 257
 4 0 l 257
 816 1500 l 257
 679 1500 l 257
 -139 0 l 257
EndSplineSet
EndChar

StartChar: g
Encoding: 103 103 280
Width: 1145
VWidth: 0
Flags: HW
PickledData: "(dp1
S'org.robofab.postScriptHintData'
p2
(dp3
s."
AnchorPoint: "top" 682 1052 basechar 0
LayerCount: 2
Fore
SplineSet
482 -388 m 256
 723 -388 877 -191 919 47 c 258
 1096 1051 l 257
 976 1051 l 257
 946 971 l 257
 916 1018 841 1070 680 1070 c 256
 420 1070 260 945 219 714 c 258
 161 387 l 258
 155 354 152 323 152 295 c 0
 152 130 255 45 493 45 c 256
 560 45 728 66 796 133 c 257
 767 -32 l 258
 739 -194 648 -279 446 -279 c 256
 336 -279 223 -260 194 -243 c 257
 141 -358 l 257
 216 -383 333 -388 482 -388 c 256
533 167 m 256
 394 167 288 201 288 311 c 0
 288 322 289 334 291 346 c 258
 361 743 l 258
 386 886 508 953 670 953 c 256
 840 953 912 908 912 810 c 0
 912 796 911 781 908 765 c 258
 820 266 l 257
 791 244 702 167 533 167 c 256
EndSplineSet
EndChar

StartChar: germandbls
Encoding: 223 223 287
Width: 1278
VWidth: 0
Flags: HW
PickledData: "(dp1
S'org.robofab.postScriptHintData'
p2
(dp3
s."
LayerCount: 2
Fore
SplineSet
90 0 m 257
 205 0 l 257
 405 1132 l 258
 441 1338 603 1340 748 1340 c 256
 759 1340 770 1340 781 1340 c 256
 873 1340 965 1334 965 1198 c 0
 965 1177 963 1152 958 1124 c 256
 933 982 862 923 622 923 c 257
 602 810 l 257
 634 811 665 812 695 812 c 256
 878 812 1003 776 1003 605 c 0
 1003 581 1000 553 995 523 c 256
 926 133 645 167 360 135 c 257
 357 12 l 257
 750 12 1026 97 1104 541 c 256
 1113 593 1117 638 1117 675 c 0
 1117 915 954 877 947 913 c 257
 1025 934 1064 972 1094 1143 c 256
 1099 1172 1102 1199 1102 1224 c 0
 1102 1384 1000 1469 805 1469 c 257
 587 1469 343 1432 283 1094 c 258
 90 0 l 257
EndSplineSet
EndChar

StartChar: grave
Encoding: 96 96 288
Width: 652
VWidth: 0
Flags: HW
PickledData: "(dp1
S'org.robofab.postScriptHintData'
p2
(dp3
s."
AnchorPoint: "top" 244 1052 mark 0
LayerCount: 2
Fore
SplineSet
28 1586 m 257
 197 1196 l 257
 312 1196 l 257
 228 1586 l 257
 28 1586 l 257
EndSplineSet
EndChar

StartChar: greater
Encoding: 62 62 289
Width: 1386
VWidth: 0
Flags: HW
PickledData: "(dp1
S'org.robofab.postScriptHintData'
p2
(dp3
s."
LayerCount: 2
Fore
SplineSet
136 -19 m 257
 1197 488 l 257
 1230 678 l 257
 348 1182 l 257
 314 987 l 257
 1073 580 l 257
 169 169 l 257
 136 -19 l 257
EndSplineSet
EndChar

StartChar: guillemotleft
Encoding: 171 171 290
Width: 1072
VWidth: 0
Flags: HW
PickledData: "(dp1
S'org.robofab.postScriptHintData'
p2
(dp3
s."
LayerCount: 2
Fore
SplineSet
721 80 m 257
 819 130 l 257
 683 530 l 257
 961 930 l 257
 872 980 l 257
 530 530 l 257
 721 80 l 257
365 80 m 257
 463 130 l 257
 327 530 l 257
 605 930 l 257
 516 980 l 257
 174 530 l 257
 365 80 l 257
EndSplineSet
EndChar

StartChar: guillemotright
Encoding: 187 187 291
Width: 1072
VWidth: 0
Flags: HW
PickledData: "(dp1
S'org.robofab.postScriptHintData'
p2
(dp3
s."
LayerCount: 2
Fore
SplineSet
380 980 m 257
 275 930 l 257
 411 530 l 257
 133 130 l 257
 215 80 l 257
 564 530 l 257
 380 980 l 257
736 980 m 257
 631 930 l 257
 767 530 l 257
 489 130 l 257
 571 80 l 257
 920 530 l 257
 736 980 l 257
EndSplineSet
EndChar

StartChar: guilsinglleft
Encoding: 8249 8249 292
Width: 768
VWidth: 0
Flags: HW
PickledData: "(dp1
S'org.robofab.postScriptHintData'
p2
(dp3
s."
LayerCount: 2
Fore
SplineSet
355 80 m 257
 453 130 l 257
 317 530 l 257
 595 930 l 257
 506 980 l 257
 164 530 l 257
 355 80 l 257
EndSplineSet
EndChar

StartChar: guilsinglright
Encoding: 8250 8250 293
Width: 768
VWidth: 0
Flags: HW
PickledData: "(dp1
S'org.robofab.postScriptHintData'
p2
(dp3
s."
LayerCount: 2
Fore
SplineSet
390 980 m 257
 285 930 l 257
 421 530 l 257
 143 130 l 257
 225 80 l 257
 574 530 l 257
 390 980 l 257
EndSplineSet
EndChar

StartChar: h
Encoding: 104 104 294
Width: 1195
VWidth: 0
Flags: HW
PickledData: "(dp1
S'org.robofab.postScriptHintData'
p2
(dp3
s."
AnchorPoint: "top" 773 1332 basechar 0
LayerCount: 2
Fore
SplineSet
64 0 m 257
 201 0 l 257
 336 764 l 258
 353 865 459 961 694 961 c 256
 833 961 888 913 888 834 c 0
 888 823 887 811 885 799 c 258
 744 0 l 257
 882 0 l 257
 1016 760 l 258
 1021 788 1024 817 1024 844 c 0
 1024 969 959 1070 717 1070 c 256
 540 1070 432 1014 367 944 c 257
 465 1499 l 257
 328 1499 l 257
 64 0 l 257
EndSplineSet
EndChar

StartChar: hbar
Encoding: 295 295 295
Width: 1206
VWidth: 0
Flags: HW
PickledData: "(dp1
S'org.robofab.postScriptHintData'
p2
(dp3
s."
LayerCount: 2
Fore
SplineSet
122 1256 m 257
 668 1256 l 257
 686 1357 l 257
 140 1357 l 257
 122 1256 l 257
EndSplineSet
Refer: 294 104 N 1 0 0 1 0 0 2
EndChar

StartChar: hungarumlaut
Encoding: 733 733 297
Width: 1024
VWidth: 0
Flags: HW
PickledData: "(dp1
S'org.robofab.postScriptHintData'
p2
(dp3
s."
AnchorPoint: "top" 393 1052 mark 0
LayerCount: 2
Fore
SplineSet
185 1215 m 257
 280 1215 l 257
 584 1605 l 257
 405 1605 l 257
 185 1215 l 257
525 1215 m 257
 625 1215 l 257
 979 1605 l 257
 795 1605 l 257
 525 1215 l 257
EndSplineSet
EndChar

StartChar: hyphen
Encoding: 45 45 298
Width: 1058
VWidth: 0
Flags: HW
PickledData: "(dp1
S'org.robofab.postScriptHintData'
p2
(dp3
s."
AnchorPoint: "mid" 507 566 mark 0
LayerCount: 2
Fore
SplineSet
188 521 m 257
 802 521 l 257
 820 622 l 257
 206 622 l 257
 188 521 l 257
EndSplineSet
EndChar

StartChar: infinity
Encoding: 8734 8734 311
Width: 1411
VWidth: 0
Flags: HW
PickledData: "(dp1
S'org.robofab.postScriptHintData'
p2
(dp3
s."
LayerCount: 2
Fore
SplineSet
721 948 m 257
 712 959 547 1155 338 1155 c 256
 140 1155 49 1002 24 859 c 256
 20 834 17 810 17 785 c 0
 17 670 71 564 234 564 c 256
 443 564 682 792 695 805 c 257
 705 792 864 564 1073 564 c 256
 1271 564 1362 720 1387 859 c 256
 1391 884 1394 910 1394 935 c 0
 1394 1051 1340 1155 1177 1155 c 256
 968 1155 735 959 721 948 c 257
137 859 m 256
 162 1002 242 1069 341 1069 c 256
 440 1069 558 1001 661 874 c 257
 499 730 350 653 252 653 c 256
 177 653 131 698 131 792 c 0
 131 812 133 835 137 859 c 256
756 874 m 257
 903 1001 1045 1069 1144 1069 c 256
 1227 1069 1280 1022 1280 922 c 0
 1280 903 1278 882 1274 859 c 256
 1249 720 1178 653 1087 653 c 256
 989 653 866 730 756 874 c 257
EndSplineSet
EndChar

StartChar: integral
Encoding: 8747 8747 312
Width: 1008
VWidth: 0
Flags: HW
PickledData: "(dp1
S'org.robofab.postScriptHintData'
p2
(dp3
s."
LayerCount: 2
Fore
SplineSet
125 -450 m 256
 310 -450 420 -386 455 -184 c 258
 699 1198 l 258
 715 1291 755 1367 917 1367 c 256
 925 1367 925 1370 930 1369 c 257
 950 1479 l 257
 921 1482 885 1484 858 1484 c 256
 664 1484 560 1420 518 1179 c 258
 272 -213 l 258
 257 -299 206 -333 83 -333 c 256
 68 -333 58 -335 45 -334 c 257
 26 -444 l 257
 57 -448 95 -450 125 -450 c 256
EndSplineSet
EndChar

StartChar: k
Encoding: 107 107 318
Width: 1105
VWidth: 0
Flags: HW
PickledData: "(dp1
S'org.robofab.postScriptHintData'
p2
(dp3
s."
AnchorPoint: "bot" 471 0 basechar 0
AnchorPoint: "top" 722 1052 basechar 0
LayerCount: 2
Fore
SplineSet
64 0 m 257
 201 0 l 257
 262 350 l 257
 454 514 l 257
 790 0 l 257
 959 0 l 257
 557 584 l 257
 1086 1052 l 257
 942 1052 l 257
 286 486 l 257
 465 1500 l 257
 328 1500 l 257
 64 0 l 257
EndSplineSet
EndChar

StartChar: kgreenlandic
Encoding: 312 312 321
Width: 1109
VWidth: 0
Flags: HW
PickledData: "(dp1
S'org.robofab.postScriptHintData'
p2
(dp3
s."
LayerCount: 2
Fore
SplineSet
102 0 m 257
 239 0 l 257
 298 335 l 257
 507 507 l 257
 837 0 l 257
 988 0 l 257
 609 570 l 257
 1118 1052 l 257
 980 1052 l 257
 694 792 606 713 319 455 c 257
 425 1052 l 257
 288 1052 l 257
 102 0 l 257
EndSplineSet
EndChar

StartChar: l
Encoding: 108 108 322
Width: 667
VWidth: 0
Flags: HW
PickledData: "(dp1
S'org.robofab.postScriptHintData'
p2
(dp3
s."
AnchorPoint: "bot" 193 0 basechar 0
AnchorPoint: "mid" 212 815 basechar 0
AnchorPoint: "top" 414 1502 basechar 0
AnchorPoint: "caron.alt" 233 1052 basechar 0
LayerCount: 2
Fore
SplineSet
395 -6 m 258
 413 -6 l 257
 460 126 l 257
 427 126 l 258
 304 126 257 139 257 234 c 0
 257 265 262 305 271 355 c 258
 473 1499 l 257
 335 1499 l 257
 134 361 l 258
 122 295 117 241 117 197 c 0
 117 16 212 -6 395 -6 c 258
EndSplineSet
EndChar

StartChar: less
Encoding: 60 60 327
Width: 1386
VWidth: 0
Flags: HW
PickledData: "(dp1
S'org.robofab.postScriptHintData'
p2
(dp3
s."
LayerCount: 2
Fore
SplineSet
1048 -19 m 257
 1083 177 l 257
 322 583 l 257
 1227 996 l 257
 1260 1182 l 257
 199 677 l 257
 165 487 l 257
 1048 -19 l 257
EndSplineSet
EndChar

StartChar: logicalnot
Encoding: 172 172 329
Width: 768
VWidth: 0
Flags: HW
PickledData: "(dp1
S'org.robofab.postScriptHintData'
p2
(dp3
s."
LayerCount: 2
Fore
SplineSet
496 397 m 257
 619 397 l 257
 665 653 l 257
 102 653 l 257
 81 537 l 257
 521 537 l 257
 496 397 l 257
EndSplineSet
EndChar

StartChar: lozenge
Encoding: 9674 9674 330
Width: 1104
VWidth: 0
Flags: HW
PickledData: "(dp1
S'org.robofab.postScriptHintData'
p2
(dp3
s."
LayerCount: 2
Fore
SplineSet
364 0 m 257
 518 0 l 257
 980 708 l 257
 766 1411 l 257
 612 1411 l 257
 124 708 l 257
 364 0 l 257
468 143 m 257
 282 708 l 257
 664 1257 l 257
 827 708 l 257
 468 143 l 257
EndSplineSet
EndChar

StartChar: lslash
Encoding: 322 322 331
Width: 708
VWidth: 0
Flags: HW
PickledData: "(dp1
S'org.robofab.postScriptHintData'
p2
(dp3
s."
LayerCount: 2
Fore
SplineSet
48 658 m 257
 557 940 l 257
 579 1062 l 257
 70 780 l 257
 48 658 l 257
EndSplineSet
Refer: 322 108 N 1 0 0 1 0 0 2
EndChar

StartChar: m
Encoding: 109 109 332
Width: 1829
VWidth: 0
Flags: HW
PickledData: "(dp1
S'org.robofab.postScriptHintData'
p2
(dp3
s."
AnchorPoint: "top" 1044 1052 basechar 0
LayerCount: 2
Fore
SplineSet
103 0 m 257
 240 0 l 257
 375 765 l 258
 392 865 463 959 710 959 c 256
 841 959 903 907 903 825 c 0
 903 814 902 804 900 792 c 258
 761 0 l 257
 899 0 l 257
 944 257 989 513 1034 770 c 256
 1052 871 1130 959 1369 959 c 256
 1497 959 1555 908 1555 827 c 0
 1555 816 1554 804 1552 792 c 258
 1413 0 l 257
 1550 0 l 257
 1683 756 l 258
 1689 788 1693 820 1693 851 c 0
 1693 972 1633 1070 1388 1070 c 256
 1227 1070 1102 1034 1020 927 c 257
 987 1005 919 1070 729 1070 c 256
 581 1070 484 1040 406 944 c 257
 425 1052 l 257
 288 1052 l 257
 103 0 l 257
EndSplineSet
EndChar

StartChar: macron
Encoding: 175 175 333
Width: 514
VWidth: 0
Flags: HW
PickledData: "(dp1
S'org.robofab.postScriptHintData'
p2
(dp3
s."
AnchorPoint: "top" 210 1052 mark 0
AnchorPoint: "mid" 257 1325 mark 0
LayerCount: 2
Fore
SplineSet
5 1265 m 257
 489 1265 l 257
 509 1376 l 257
 25 1376 l 257
 5 1265 l 257
EndSplineSet
EndChar

StartChar: minus
Encoding: 8722 8722 336
Width: 982
VWidth: 0
Flags: HW
PickledData: "(dp1
S'org.robofab.postScriptHintData'
p2
(dp3
s."
LayerCount: 2
Fore
SplineSet
140 439 m 257
 818 439 l 257
 846 603 l 257
 168 603 l 257
 140 439 l 257
EndSplineSet
EndChar

StartChar: mu
Encoding: 956 956 337
Width: 1211
VWidth: 0
Flags: HW
PickledData: "(dp1
S'org.robofab.postScriptHintData'
p2
(dp3
s."
LayerCount: 2
Fore
SplineSet
1002 1052 m 257
 870 304 l 258
 856 222 761 96 526 96 c 256
 385 96 322 159 322 244 c 0
 322 255 323 267 325 278 c 258
 461 1052 l 257
 324 1052 l 257
 56 -471 l 257
 205 -471 l 257
 290 10 l 257
 330 -11 391 -24 476 -24 c 256
 641 -24 759 36 840 132 c 257
 845 0 l 257
 954 0 l 257
 1139 1052 l 257
 1002 1052 l 257
EndSplineSet
EndChar

StartChar: multiply
Encoding: 215 215 338
Width: 942
VWidth: 0
Flags: HW
PickledData: "(dp1
S'org.robofab.postScriptHintData'
p2
(dp3
s."
LayerCount: 2
Fore
SplineSet
159 216 m 257
 450 458 l 257
 655 216 l 257
 787 344 l 257
 592 576 l 257
 868 806 l 257
 783 937 l 257
 492 694 l 257
 287 937 l 257
 154 806 l 257
 350 576 l 257
 73 344 l 257
 159 216 l 257
EndSplineSet
EndChar

StartChar: n
Encoding: 110 110 339
Width: 1195
VWidth: 0
Flags: HW
PickledData: "(dp1
S'org.robofab.postScriptHintData'
p2
(dp3
s."
AnchorPoint: "bot" 488 0 basechar 0
AnchorPoint: "top" 711 1052 basechar 0
LayerCount: 2
Fore
SplineSet
103 0 m 257
 241 0 l 257
 376 767 l 258
 394 867 505 961 733 961 c 256
 875 961 926 914 926 837 c 0
 926 825 925 811 922 797 c 258
 782 0 l 257
 920 0 l 257
 1059 790 l 258
 1063 813 1065 836 1065 857 c 0
 1065 982 988 1069 752 1069 c 256
 600 1069 495 1035 407 944 c 257
 426 1052 l 257
 288 1052 l 257
 103 0 l 257
EndSplineSet
EndChar

StartChar: nine
Encoding: 57 57 344
Width: 1148
VWidth: 0
Flags: HW
PickledData: "(dp1
S'org.robofab.postScriptHintData'
p2
(dp3
s."
LayerCount: 2
Fore
SplineSet
714 1448 m 256
 403 1448 237 1315 186 1024 c 256
 179 983 175 945 175 910 c 0
 175 701 306 606 559 606 c 257
 723 606 799 659 852 713 c 257
 807 707 l 257
 259 0 l 257
 420 0 l 257
 853 572 l 258
 985 746 1054 887 1078 1024 c 256
 1086 1069 1090 1110 1090 1147 c 0
 1090 1353 969 1448 714 1448 c 256
693 1328 m 256
 882 1328 955 1264 955 1126 c 0
 955 1096 952 1061 945 1024 c 256
 908 815 795 720 579 720 c 256
 399 720 312 790 312 937 c 0
 312 964 315 992 321 1024 c 256
 358 1232 455 1328 693 1328 c 256
EndSplineSet
EndChar

StartChar: notequal
Encoding: 8800 8800 346
Width: 677
VWidth: 0
Flags: HW
PickledData: "(dp1
S'org.robofab.postScriptHintData'
p2
(dp3
s."
LayerCount: 2
Fore
SplineSet
41 238 m 257
 173 238 l 257
 688 1241 l 257
 563 1241 l 257
 41 238 l 257
EndSplineSet
Refer: 259 61 N 1 0 0 1 -386 0 2
EndChar

StartChar: numbersign
Encoding: 35 35 348
Width: 1231
VWidth: 0
Flags: HW
PickledData: "(dp1
S'org.robofab.postScriptHintData'
p2
(dp3
s."
LayerCount: 2
Fore
SplineSet
61 0 m 257
 182 0 l 257
 351 473 l 257
 681 473 l 257
 509 0 l 257
 630 0 l 257
 799 473 l 257
 1090 473 l 257
 1108 580 l 257
 836 580 l 257
 957 918 l 257
 1192 918 l 257
 1211 1025 l 257
 994 1025 l 257
 1138 1427 l 257
 1025 1427 l 257
 880 1025 l 257
 547 1025 l 257
 690 1427 l 257
 577 1427 l 257
 432 1025 l 257
 154 1025 l 257
 135 918 l 257
 392 918 l 257
 271 580 l 257
 51 580 l 257
 33 473 l 257
 233 473 l 257
 61 0 l 257
388 580 m 257
 509 918 l 257
 841 918 l 257
 719 580 l 257
 388 580 l 257
EndSplineSet
EndChar

StartChar: o
Encoding: 111 111 349
Width: 1140
VWidth: 0
Flags: HW
AnchorPoint: "ogonek" 518 0 basechar 0
AnchorPoint: "top" 663 1052 basechar 0
LayerCount: 2
Fore
SplineSet
191 739 m 258
 121 343 l 258
 115 311 112 280 112 252 c 0
 112 82 219 -21 474 -21 c 256
 772 -21 915 119 955 343 c 258
 1025 739 l 258
 1029 764 1032 789 1032 811 c 0
 1032 981 905 1070 666 1070 c 256
 395 1070 229 956 191 739 c 258
818 343 m 258
 785 157 693 94 494 94 c 256
 326 94 250 139 250 264 c 0
 250 287 253 314 258 343 c 258
 328 739 l 258
 355 894 446 953 646 953 c 256
 819 953 894 909 894 797 c 0
 894 779 892 760 888 739 c 258
 818 343 l 258
EndSplineSet
EndChar

StartChar: oe
Encoding: 339 339 356
Width: 1706
VWidth: 0
Flags: HW
PickledData: "(dp1
S'org.robofab.postScriptHintData'
p2
(dp3
s."
LayerCount: 2
Fore
SplineSet
464 -18 m 256
 632 -18 728 41 802 141 c 257
 839 45 932 -18 1088 -18 c 256
 1378 -18 1456 90 1526 315 c 257
 1406 315 l 257
 1354 124 1297 94 1105 94 c 256
 964 94 900 152 900 264 c 0
 900 285 903 307 907 332 c 258
 937 502 l 257
 1560 502 l 257
 1606 766 l 258
 1610 788 1612 810 1612 830 c 0
 1612 983 1498 1070 1281 1070 c 256
 1127 1070 1019 1032 943 934 c 257
 895 1033 798 1070 656 1070 c 256
 401 1070 238 933 205 746 c 258
 128 312 l 258
 123 284 120 257 120 231 c 0
 120 86 207 -18 464 -18 c 256
484 94 m 256
 341 94 258 137 258 247 c 0
 258 261 259 276 262 293 c 258
 345 764 l 258
 370 908 482 957 636 957 c 256
 775 957 850 912 850 810 c 0
 850 796 849 780 846 764 c 258
 763 293 l 258
 738 151 638 94 484 94 c 256
958 620 m 257
 982 760 l 258
 1007 901 1082 957 1257 957 c 256
 1403 957 1477 928 1477 830 c 0
 1477 817 1476 802 1473 786 c 258
 1444 620 l 257
 958 620 l 257
EndSplineSet
EndChar

StartChar: ogonek
Encoding: 731 731 357
Width: 529
VWidth: 0
Flags: HW
PickledData: "(dp1
S'org.robofab.postScriptHintData'
p2
(dp3
s."
AnchorPoint: "ogonek" 415 0 mark 0
LayerCount: 2
Fore
SplineSet
365 -457 m 257
 369 -386 l 257
 264 -386 224 -345 224 -284 c 0
 224 -275 225 -265 227 -255 c 256
 246 -152 355 -44 446 11 c 257
 386 11 l 257
 216 -84 149 -205 137 -273 c 256
 135 -283 134 -292 134 -302 c 0
 134 -381 196 -456 365 -457 c 257
EndSplineSet
EndChar

StartChar: one
Encoding: 49 49 362
Width: 1148
VWidth: 0
Flags: HW
PickledData: "(dp1
S'org.robofab.postScriptHintData'
p2
(dp3
s."
LayerCount: 2
Fore
SplineSet
51 0 m 257
 930 0 l 257
 952 123 l 257
 612 123 l 257
 842 1428 l 257
 702 1428 l 257
 343 1391 l 257
 335 1267 l 257
 675 1299 l 257
 468 123 l 257
 73 123 l 257
 51 0 l 257
EndSplineSet
Substitution2: "supsSuperscriptlookup11 subtable" uni00B9
EndChar

StartChar: onehalf
Encoding: 189 189 363
Width: 1728
VWidth: 0
Flags: HW
PickledData: "(dp1
S'org.robofab.postScriptHintData'
p2
(dp3
s."
LayerCount: 2
Fore
SplineSet
1011 0 m 257
 1467 0 l 257
 1479 69 l 257
 1139 69 l 257
 1388 279 l 258
 1483 358 1566 434 1566 588 c 0
 1566 674 1524 745 1381 745 c 257
 1192 745 1116 684 1091 540 c 257
 1179 540 l 257
 1201 666 1276 673 1370 673 c 256
 1447 673 1481 638 1481 573 c 0
 1481 560 1480 546 1477 530 c 256
 1464 452 1444 420 1346 336 c 258
 1021 58 l 257
 1011 0 l 257
190 793 m 257
 772 793 l 257
 785 867 l 257
 563 867 l 257
 678 1522 l 257
 595 1522 l 257
 325 1501 l 257
 320 1421 l 257
 582 1440 l 257
 481 867 l 257
 203 867 l 257
 190 793 l 257
398 0 m 257
 485 0 l 257
 1457 1428 l 257
 1376 1428 l 257
 398 0 l 257
EndSplineSet
Ligature2: "fracDiagonalFractionslookup12 subtable" one slash two
EndChar

StartChar: onequarter
Encoding: 188 188 364
Width: 1815
VWidth: 0
Flags: HW
PickledData: "(dp1
S'org.robofab.postScriptHintData'
p2
(dp3
s."
LayerCount: 2
Fore
SplineSet
1327 0 m 257
 1413 0 l 257
 1449 205 l 257
 1578 205 l 257
 1590 273 l 257
 1461 273 l 257
 1498 484 l 257
 1412 484 l 257
 1375 273 l 257
 1086 273 l 257
 1425 783 l 257
 1338 783 l 257
 978 257 l 257
 969 205 l 257
 1363 205 l 257
 1327 0 l 257
190 793 m 257
 772 793 l 257
 785 867 l 257
 563 867 l 257
 678 1522 l 257
 595 1522 l 257
 325 1501 l 257
 320 1421 l 257
 582 1440 l 257
 481 867 l 257
 203 867 l 257
 190 793 l 257
398 0 m 257
 485 0 l 257
 1457 1428 l 257
 1376 1428 l 257
 398 0 l 257
EndSplineSet
Ligature2: "fracDiagonalFractionslookup12 subtable" one slash four
EndChar

StartChar: uni00B9
Encoding: 185 185 365
Width: 1004
VWidth: 0
Flags: HW
PickledData: "(dp1
S'org.robofab.postScriptHintData'
p2
(dp3
s."
LayerCount: 2
Fore
SplineSet
132 736 m 257
 713 736 l 257
 727 815 l 257
 507 815 l 257
 635 1538 l 257
 545 1538 l 257
 281 1514 l 257
 276 1433 l 257
 527 1454 l 257
 414 815 l 257
 146 815 l 257
 132 736 l 257
EndSplineSet
EndChar

StartChar: oslash
Encoding: 248 248 369
Width: 1140
VWidth: 0
Flags: HW
PickledData: "(dp1
S'org.robofab.postScriptHintData'
p2
(dp3
s."
LayerCount: 2
Fore
SplineSet
143 -157 m 257
 1038 1183 l 257
 982 1210 l 257
 88 -130 l 257
 143 -157 l 257
EndSplineSet
Refer: 349 111 N 1 0 0 1 0 0 2
EndChar

StartChar: p
Encoding: 112 112 372
Width: 1191
VWidth: 0
Flags: HW
PickledData: "(dp1
S'org.robofab.postScriptHintData'
p2
(dp3
s."
AnchorPoint: "top" 744 1052 basechar 0
LayerCount: 2
Fore
SplineSet
67 -407 m 257
 204 -407 l 257
 283 44 l 257
 329 16 410 -21 549 -21 c 256
 809 -21 991 124 1032 355 c 258
 1096 716 l 258
 1101 743 1103 770 1103 795 c 0
 1103 957 1001 1070 761 1070 c 256
 637 1070 506 1014 451 966 c 257
 447 1052 l 257
 324 1052 l 257
 67 -407 l 257
564 96 m 256
 453 96 365 120 304 159 c 257
 419 814 l 257
 432 837 561 953 722 953 c 256
 860 953 966 889 966 773 c 0
 966 761 965 750 963 737 c 258
 890 326 l 258
 865 184 726 96 564 96 c 256
EndSplineSet
EndChar

StartChar: paragraph
Encoding: 182 182 373
Width: 1267
VWidth: 0
Flags: HW
PickledData: "(dp1
S'org.robofab.postScriptHintData'
p2
(dp3
s."
LayerCount: 2
Fore
SplineSet
366 -336 m 257
 480 -336 l 257
 776 1340 l 257
 950 1340 l 257
 654 -336 l 257
 768 -336 l 257
 1080 1428 l 257
 704 1428 l 258
 510 1428 356 1362 318 1146 c 256
 315 1131 314 1117 314 1103 c 0
 314 967 438 882 580 877 c 257
 366 -336 l 257
EndSplineSet
EndChar

StartChar: parenleft
Encoding: 40 40 374
Width: 661
VWidth: 0
Flags: HW
PickledData: "(dp1
S'org.robofab.postScriptHintData'
p2
(dp3
s."
LayerCount: 2
Fore
SplineSet
411 -145 m 257
 430 -34 l 257
 244 -34 195 35 195 142 c 0
 195 239 223 328 239 420 c 258
 338 982 l 257
 384 1228 368 1450 692 1450 c 257
 711 1562 l 257
 340 1562 261 1365 223 1149 c 256
 211 1080 203 1010 191 943 c 258
 105 452 l 258
 86 348 50 235 50 117 c 0
 50 -31 122 -144 411 -145 c 257
EndSplineSet
EndChar

StartChar: parenright
Encoding: 41 41 375
Width: 661
VWidth: 0
Flags: HW
PickledData: "(dp1
S'org.robofab.postScriptHintData'
p2
(dp3
s."
LayerCount: 2
Fore
SplineSet
-60 -145 m 257
 311 -144 390 53 429 269 c 256
 441 338 448 408 460 475 c 258
 546 966 l 258
 565 1070 601 1182 601 1300 c 0
 601 1448 529 1562 240 1562 c 257
 221 1452 l 257
 407 1452 456 1383 456 1276 c 0
 456 1179 428 1090 412 998 c 258
 313 437 l 257
 271 189 281 -33 -41 -33 c 257
 -60 -145 l 257
EndSplineSet
EndChar

StartChar: partialdiff
Encoding: 8706 8706 376
Width: 1194
VWidth: 0
Flags: HW
PickledData: "(dp1
S'org.robofab.postScriptHintData'
p2
(dp3
s."
LayerCount: 2
Fore
SplineSet
940 1099 m 0
 940 1048 933 977 918 929 c 257
 907 929 l 258
 460 929 145 563 95 284 c 256
 91 259 88 235 88 212 c 0
 88 76 166 -20 331 -20 c 257
 658 -20 961 384 1056 920 c 256
 1067 985 1073 1044 1073 1097 c 0
 1073 1389 914 1514 712 1514 c 256
 614 1514 512 1488 391 1431 c 257
 399 1394 l 257
 460 1417 542 1433 614 1433 c 256
 800 1433 940 1329 940 1099 c 0
362 79 m 256
 282 79 249 133 249 205 c 0
 249 221 251 238 254 256 c 256
 293 474 541 846 900 848 c 257
 829 550 637 79 362 79 c 256
EndSplineSet
EndChar

StartChar: percent
Encoding: 37 37 378
Width: 2008
VWidth: 0
Flags: HW
PickledData: "(dp1
S'org.robofab.postScriptHintData'
p2
(dp3
s."
LayerCount: 2
Fore
SplineSet
464 794 m 256
 362 794 332 847 332 930 c 0
 332 964 337 1004 345 1047 c 258
 362 1145 l 258
 387 1285 418 1382 568 1382 c 256
 674 1382 705 1334 705 1256 c 0
 705 1223 699 1185 692 1143 c 258
 675 1047 l 258
 649 902 609 794 464 794 c 256
445 686 m 256
 675 686 773 836 813 1065 c 257
 823 1119 l 258
 831 1167 836 1211 836 1251 c 0
 836 1403 770 1489 587 1489 c 256
 356 1489 267 1351 226 1118 c 257
 216 1065 l 258
 207 1015 202 969 202 927 c 0
 202 778 265 686 445 686 c 256
1436 89 m 256
 1335 89 1305 143 1305 224 c 0
 1305 259 1310 298 1318 341 c 258
 1335 440 l 258
 1359 579 1390 676 1540 676 c 256
 1647 676 1677 627 1677 549 c 0
 1677 517 1672 479 1665 438 c 258
 1648 341 l 258
 1622 197 1581 89 1436 89 c 256
1417 -19 m 256
 1647 -19 1744 131 1785 360 c 257
 1794 414 l 258
 1802 462 1807 507 1807 547 c 0
 1807 698 1741 784 1559 784 c 256
 1328 784 1238 646 1197 413 c 257
 1188 360 l 258
 1179 310 1174 264 1174 222 c 0
 1174 73 1237 -19 1417 -19 c 256
522 0 m 257
 662 0 l 257
 1455 1446 l 257
 1320 1446 l 257
 522 0 l 257
EndSplineSet
EndChar

StartChar: period
Encoding: 46 46 379
Width: 624
VWidth: 0
Flags: HW
PickledData: "(dp1
S'org.robofab.postScriptHintData'
p2
(dp3
s."
LayerCount: 2
Fore
SplineSet
180 0 m 257
 411 0 l 257
 449 217 l 257
 218 217 l 257
 180 0 l 257
EndSplineSet
EndChar

StartChar: periodcentered
Encoding: 183 183 380
Width: 867
VWidth: 0
Flags: HW
PickledData: "(dp1
S'org.robofab.postScriptHintData'
p2
(dp3
s."
AnchorPoint: "mid" 164 601 mark 0
LayerCount: 2
Fore
SplineSet
512 527 m 257
 691 527 l 257
 723 710 l 257
 544 710 l 257
 512 527 l 257
EndSplineSet
EndChar

StartChar: perthousand
Encoding: 8240 8240 381
Width: 2956
VWidth: 0
Flags: HW
PickledData: "(dp1
S'org.robofab.postScriptHintData'
p2
(dp3
s."
LayerCount: 2
Fore
SplineSet
562 766 m 256
 460 766 430 820 430 903 c 0
 430 937 435 976 442 1018 c 258
 460 1117 l 257
 484 1256 515 1353 665 1353 c 256
 771 1353 802 1305 802 1227 c 0
 802 1194 796 1157 789 1115 c 258
 772 1018 l 258
 747 874 706 766 562 766 c 256
543 658 m 256
 773 658 870 808 911 1037 c 257
 920 1091 l 258
 928 1139 933 1183 933 1223 c 0
 933 1375 867 1461 684 1461 c 256
 453 1461 364 1323 323 1090 c 257
 314 1037 l 258
 305 987 300 941 300 899 c 0
 300 750 363 658 543 658 c 256
1539 89 m 256
 1437 89 1407 143 1407 225 c 0
 1407 259 1413 299 1420 341 c 258
 1437 440 l 257
 1462 579 1492 676 1642 676 c 256
 1748 676 1779 628 1779 550 c 0
 1779 517 1773 480 1766 438 c 258
 1749 341 l 258
 1724 197 1684 89 1539 89 c 256
1520 -19 m 256
 1750 -19 1846 131 1886 360 c 257
 1896 414 l 258
 1904 462 1909 507 1909 547 c 0
 1909 698 1843 784 1661 784 c 256
 1430 784 1341 646 1300 413 c 257
 1290 360 l 258
 1281 310 1276 265 1276 223 c 0
 1276 74 1340 -19 1520 -19 c 256
2333 89 m 256
 2231 89 2201 143 2201 225 c 0
 2201 259 2207 299 2214 341 c 258
 2231 440 l 257
 2256 579 2286 676 2436 676 c 256
 2542 676 2573 628 2573 550 c 0
 2573 517 2567 480 2560 438 c 258
 2543 341 l 258
 2518 197 2478 89 2333 89 c 256
2314 -19 m 256
 2544 -19 2640 131 2680 360 c 257
 2690 414 l 258
 2698 462 2703 507 2703 547 c 0
 2703 698 2637 784 2455 784 c 256
 2224 784 2135 646 2094 413 c 257
 2084 360 l 258
 2075 310 2070 265 2070 223 c 0
 2070 74 2134 -19 2314 -19 c 256
625 0 m 257
 765 0 l 257
 1558 1446 l 257
 1423 1446 l 257
 625 0 l 257
EndSplineSet
EndChar

StartChar: pi
Encoding: 960 960 382
Width: 1134
VWidth: 0
Flags: HW
PickledData: "(dp1
S'org.robofab.postScriptHintData'
p2
(dp3
s."
LayerCount: 2
Fore
SplineSet
99 919 m 257
 95 916 94 915 93 914 c 257
 93 914 93 913 94 913 c 256
 107 913 227 961 324 961 c 258
 338 961 l 257
 168 0 l 257
 317 0 l 257
 487 960 l 257
 818 960 l 257
 692 249 l 258
 685 210 682 177 682 148 c 0
 682 13 756 -21 909 -23 c 257
 982 105 l 257
 881 130 844 147 844 224 c 0
 844 250 848 284 856 327 c 258
 968 960 l 257
 1150 960 l 257
 1166 1052 l 257
 302 1052 l 258
 191 1052 115 1002 110 1002 c 256
 109 1002 110 1004 115 1008 c 257
 99 919 l 257
EndSplineSet
EndChar

StartChar: plus
Encoding: 43 43 383
Width: 1059
VWidth: 0
Flags: HW
PickledData: "(dp1
S'org.robofab.postScriptHintData'
p2
(dp3
s."
LayerCount: 2
Fore
SplineSet
397 156 m 257
 520 156 l 257
 583 511 l 257
 870 511 l 257
 889 618 l 257
 602 618 l 257
 664 968 l 257
 541 968 l 257
 479 618 l 257
 190 618 l 257
 171 511 l 257
 460 511 l 257
 397 156 l 257
EndSplineSet
EndChar

StartChar: plusminus
Encoding: 177 177 384
Width: 1051
VWidth: 0
Flags: HW
PickledData: "(dp1
S'org.robofab.postScriptHintData'
p2
(dp3
s."
LayerCount: 2
Fore
SplineSet
453 339 m 257
 547 339 l 257
 597 623 l 257
 847 623 l 257
 862 709 l 257
 612 709 l 257
 659 976 l 257
 565 976 l 257
 518 709 l 257
 268 709 l 257
 253 623 l 257
 503 623 l 257
 453 339 l 257
143 0 m 257
 737 0 l 257
 753 93 l 257
 159 93 l 257
 143 0 l 257
EndSplineSet
EndChar

StartChar: product
Encoding: 8719 8719 385
Width: 1802
VWidth: 0
Flags: HW
PickledData: "(dp1
S'org.robofab.postScriptHintData'
p2
(dp3
s."
LayerCount: 2
Fore
SplineSet
594 319 m 257
 725 319 l 257
 784 652 l 257
 962 652 l 258
 1187 652 1262 764 1283 908 c 256
 1286 929 1288 948 1288 966 c 0
 1288 1098 1201 1153 1063 1153 c 258
 741 1153 l 257
 594 319 l 257
800 742 m 257
 856 1062 l 257
 1051 1062 l 258
 1137 1062 1155 1008 1155 956 c 0
 1155 936 1153 917 1150 901 c 258
 1146 877 l 257
 1133 814 1100 742 986 742 c 258
 800 742 l 257
790 82 m 256
 469 82 263 296 263 597 c 0
 263 637 266 679 274 722 c 256
 338 1086 652 1361 1016 1361 c 256
 1339 1361 1542 1148 1542 848 c 0
 1542 808 1539 765 1531 722 c 256
 1467 357 1156 82 790 82 c 256
771 -14 m 256
 1187 -14 1563 303 1637 722 c 256
 1645 769 1649 815 1649 859 c 0
 1649 1206 1400 1456 1031 1456 c 256
 618 1456 239 1139 165 722 c 256
 157 675 153 629 153 585 c 0
 153 236 404 -14 771 -14 c 256
EndSplineSet
EndChar

StartChar: q
Encoding: 113 113 386
Width: 1194
VWidth: 0
Flags: HW
PickledData: "(dp1
S'org.robofab.postScriptHintData'
p2
(dp3
s."
LayerCount: 2
Fore
SplineSet
730 -407 m 257
 867 -407 l 257
 1124 1052 l 257
 945 1052 l 257
 940 957 l 257
 937 1006 806 1070 700 1070 c 256
 415 1070 268 930 230 715 c 258
 159 312 l 258
 155 290 153 269 153 249 c 0
 153 72 305 -21 533 -21 c 256
 600 -21 736 -2 811 55 c 257
 730 -407 l 257
541 96 m 256
 405 96 286 126 286 238 c 0
 286 248 287 259 289 270 c 258
 373 743 l 258
 398 886 531 953 698 953 c 256
 876 953 947 888 947 825 c 0
 947 812 944 803 941 793 c 257
 835 190 l 257
 815 160 697 96 541 96 c 256
EndSplineSet
EndChar

StartChar: question
Encoding: 63 63 387
Width: 1083
VWidth: 0
Flags: HW
PickledData: "(dp1
S'org.robofab.postScriptHintData'
p2
(dp3
s."
LayerCount: 2
Fore
SplineSet
348 431 m 257
 466 431 l 257
 686 651 l 258
 855 820 994 972 1024 1142 c 256
 1028 1162 1029 1182 1029 1202 c 0
 1029 1330 950 1448 688 1448 c 256
 400 1448 261 1326 226 1128 c 257
 219 1085 l 257
 352 1085 l 257
 358 1119 l 258
 380 1247 462 1322 665 1322 c 256
 820 1322 884 1272 884 1177 c 0
 884 1163 883 1147 880 1131 c 256
 859 1016 753 898 657 788 c 258
 348 431 l 257
228 0 m 257
 405 0 l 257
 438 183 l 257
 261 183 l 257
 228 0 l 257
EndSplineSet
EndChar

StartChar: quotedbl
Encoding: 34 34 389
Width: 810
VWidth: 0
Flags: HW
PickledData: "(dp1
S'org.robofab.postScriptHintData'
p2
(dp3
s."
LayerCount: 2
Fore
SplineSet
139 965 m 257
 247 965 l 257
 386 1500 l 257
 210 1500 l 257
 139 965 l 257
460 965 m 257
 568 965 l 257
 694 1500 l 257
 518 1500 l 257
 460 965 l 257
EndSplineSet
EndChar

StartChar: quotedblbase
Encoding: 8222 8222 390
Width: 1066
VWidth: 0
Flags: HW
PickledData: "(dp1
S'org.robofab.postScriptHintData'
p2
(dp3
s."
LayerCount: 2
Fore
SplineSet
505 -307 m 257
 569 -255 692 -137 724 48 c 258
 752 207 l 257
 534 207 l 257
 498 0 l 257
 625 0 l 257
 602 -128 501 -211 446 -265 c 257
 505 -307 l 257
145 -307 m 257
 210 -255 333 -137 365 48 c 258
 393 207 l 257
 175 207 l 257
 139 0 l 257
 265 0 l 257
 242 -128 141 -211 87 -265 c 257
 145 -307 l 257
EndSplineSet
EndChar

StartChar: quotedblleft
Encoding: 8220 8220 391
Width: 1104
VWidth: 0
Flags: HW
PickledData: "(dp1
S'org.robofab.postScriptHintData'
p2
(dp3
s."
LayerCount: 2
Fore
SplineSet
561 1440 m 257
 496 1387 373 1269 341 1084 c 258
 313 925 l 257
 531 925 l 257
 567 1132 l 257
 441 1132 l 257
 464 1261 565 1344 619 1397 c 257
 561 1440 l 257
935 1440 m 257
 870 1387 747 1269 715 1084 c 258
 687 925 l 257
 905 925 l 257
 941 1132 l 257
 814 1132 l 257
 837 1261 938 1344 993 1397 c 257
 935 1440 l 257
EndSplineSet
EndChar

StartChar: quotedblright
Encoding: 8221 8221 392
Width: 1080
VWidth: 0
Flags: HW
PickledData: "(dp1
S'org.robofab.postScriptHintData'
p2
(dp3
s."
LayerCount: 2
Fore
SplineSet
145 925 m 257
 210 977 333 1095 365 1280 c 258
 393 1439 l 257
 175 1439 l 257
 139 1232 l 257
 265 1232 l 257
 242 1104 141 1021 87 967 c 257
 145 925 l 257
519 925 m 257
 583 977 706 1095 738 1280 c 258
 766 1439 l 257
 548 1439 l 257
 512 1232 l 257
 639 1232 l 257
 616 1104 515 1021 460 967 c 257
 519 925 l 257
EndSplineSet
EndChar

StartChar: quoteleft
Encoding: 8216 8216 393
Width: 706
VWidth: 0
Flags: HW
PickledData: "(dp1
S'org.robofab.postScriptHintData'
p2
(dp3
s."
LayerCount: 2
Fore
SplineSet
537 1447 m 257
 472 1394 349 1276 317 1091 c 258
 289 932 l 257
 507 932 l 257
 543 1140 l 257
 417 1140 l 257
 440 1268 541 1351 595 1404 c 257
 537 1447 l 257
EndSplineSet
EndChar

StartChar: quoteright
Encoding: 8217 8217 394
Width: 730
VWidth: 0
Flags: HW
PickledData: "(dp1
S'org.robofab.postScriptHintData'
p2
(dp3
s."
LayerCount: 2
Fore
SplineSet
169 932 m 257
 234 985 357 1102 389 1287 c 258
 417 1446 l 257
 199 1446 l 257
 163 1239 l 257
 289 1239 l 257
 266 1111 165 1028 111 975 c 257
 169 932 l 257
EndSplineSet
EndChar

StartChar: quotesinglbase
Encoding: 8218 8218 395
Width: 706
VWidth: 0
Flags: HW
PickledData: "(dp1
S'org.robofab.postScriptHintData'
p2
(dp3
s."
LayerCount: 2
Fore
SplineSet
145 -307 m 257
 210 -255 333 -137 365 48 c 258
 393 207 l 257
 175 207 l 257
 139 0 l 257
 265 0 l 257
 242 -128 141 -211 87 -265 c 257
 145 -307 l 257
EndSplineSet
EndChar

StartChar: quotesingle
Encoding: 39 39 396
Width: 972
VWidth: 0
Flags: HW
PickledData: "(dp1
S'org.robofab.postScriptHintData'
p2
(dp3
s."
LayerCount: 2
Fore
SplineSet
108 965 m 257
 215 965 l 257
 355 1500 l 257
 179 1500 l 257
 108 965 l 257
EndSplineSet
EndChar

StartChar: r
Encoding: 114 114 397
Width: 764
VWidth: 0
Flags: HW
PickledData: "(dp1
S'org.robofab.postScriptHintData'
p2
(dp3
s."
AnchorPoint: "bot" 183 0 basechar 0
AnchorPoint: "top" 530 1052 basechar 0
LayerCount: 2
Fore
SplineSet
108 0 m 257
 245 0 l 257
 373 723 l 258
 373 727 373 731 374 735 c 256
 393 846 563 947 757 947 c 258
 768 947 l 257
 795 1066 l 257
 624 1060 475 1016 396 856 c 257
 431 1052 l 257
 294 1052 l 257
 108 0 l 257
EndSplineSet
EndChar

StartChar: radical
Encoding: 8730 8730 399
Width: 1220
VWidth: 0
Flags: HW
PickledData: "(dp1
S'org.robofab.postScriptHintData'
p2
(dp3
s."
LayerCount: 2
Fore
SplineSet
96 400 m 257
 215 400 l 257
 326 0 l 257
 461 0 l 257
 1354 1506 l 257
 1253 1506 l 257
 426 117 l 257
 328 511 l 257
 115 511 l 257
 96 400 l 257
EndSplineSet
EndChar

StartChar: registered
Encoding: 174 174 403
Width: 1789
VWidth: 0
Flags: HW
PickledData: "(dp1
S'org.robofab.postScriptHintData'
p2
(dp3
s."
LayerCount: 2
Fore
SplineSet
1102 666 m 257
 1213 695 1302 796 1302 966 c 0
 1302 1098 1215 1153 1077 1153 c 258
 674 1153 l 257
 527 319 l 257
 658 319 l 257
 717 652 l 257
 976 652 l 257
 1097 319 l 257
 1225 319 l 257
 1102 666 l 257
733 742 m 257
 789 1062 l 257
 1065 1062 l 258
 1151 1062 1169 1008 1169 956 c 0
 1169 936 1167 917 1164 901 c 258
 1160 877 l 257
 1147 814 1114 742 1000 742 c 258
 733 742 l 257
783 82 m 256
 462 82 256 296 256 597 c 0
 256 637 259 679 267 722 c 256
 331 1086 645 1361 1009 1361 c 256
 1332 1361 1535 1148 1535 848 c 0
 1535 808 1532 765 1524 722 c 256
 1460 357 1149 82 783 82 c 256
764 -14 m 256
 1180 -14 1556 303 1630 722 c 256
 1638 769 1642 815 1642 859 c 0
 1642 1206 1393 1456 1024 1456 c 256
 611 1456 232 1139 158 722 c 256
 150 675 146 629 146 585 c 0
 146 236 397 -14 764 -14 c 256
EndSplineSet
EndChar

StartChar: ring
Encoding: 730 730 404
Width: 464
VWidth: 0
Flags: HW
PickledData: "(dp1
S'org.robofab.postScriptHintData'
p2
(dp3
s."
AnchorPoint: "top" 187 1052 mark 0
AnchorPoint: "top" 245 1380 basechar 0
LayerCount: 2
Fore
SplineSet
339 1326 m 0
 339 1230 269 1192 213 1192 c 256
 169 1192 126 1212 126 1273 c 0
 126 1370 197 1406 252 1406 c 256
 298 1406 339 1386 339 1326 c 0
260 1457 m 256
 181 1457 57 1403 57 1268 c 0
 57 1177 137 1142 204 1142 c 256
 284 1142 407 1195 407 1330 c 0
 407 1421 328 1457 260 1457 c 256
EndSplineSet
EndChar

StartChar: s
Encoding: 115 115 406
Width: 929
VWidth: 0
Flags: HW
PickledData: "(dp1
S'org.robofab.postScriptHintData'
p2
(dp3
sS'com.typemytype.robofont.layerData'
p4
(dp5
s."
AnchorPoint: "bot" 359 0 basechar 0
AnchorPoint: "top" 600 1052 basechar 0
LayerCount: 2
Fore
SplineSet
610 1070 m 256
 343 1070 231 969 202 804 c 256
 197 773 194 747 194 723 c 0
 194 622 244 579 358 536 c 258
 565 457 l 258
 640 428 661 396 661 349 c 0
 661 325 656 298 650 265 c 256
 629 146 561 94 395 94 c 256
 228 94 159 133 107 165 c 257
 48 58 l 257
 106 20 189 -21 375 -21 c 256
 668 -21 754 123 780 271 c 256
 789 320 796 362 796 397 c 0
 796 477 762 528 643 573 c 258
 414 659 l 257
 354 683 333 705 333 750 c 0
 333 766 336 784 340 807 c 256
 360 922 439 955 594 955 c 256
 703 955 793 932 835 910 c 257
 891 1013 l 257
 846 1037 764 1070 610 1070 c 256
EndSplineSet
EndChar

StartChar: section
Encoding: 167 167 414
Width: 952
VWidth: 0
Flags: HW
PickledData: "(dp1
S'org.robofab.postScriptHintData'
p2
(dp3
s."
LayerCount: 2
Fore
SplineSet
35 35 m 257
 57 26 185 -22 403 -22 c 256
 670 -22 775 121 800 259 c 256
 804 281 806 302 806 323 c 0
 806 394 785 458 758 487 c 257
 796 575 834 658 847 731 c 256
 850 747 852 763 852 779 c 0
 852 858 810 923 686 968 c 257
 446 1051 l 257
 384 1074 365 1092 365 1131 c 0
 365 1142 366 1156 369 1171 c 256
 392 1303 500 1348 630 1348 c 256
 724 1348 829 1325 923 1295 c 257
 967 1417 l 257
 873 1442 765 1461 659 1461 c 256
 459 1461 271 1393 231 1170 c 256
 227 1144 224 1121 224 1100 c 0
 224 1058 234 1023 261 996 c 257
 221 921 195 856 185 801 c 256
 182 783 180 765 180 749 c 0
 180 659 229 599 321 565 c 258
 601 462 l 258
 675 435 696 406 696 358 c 0
 696 336 692 309 686 278 c 256
 668 175 615 90 400 90 c 256
 214 90 104 146 75 155 c 257
 35 35 l 257
731 753 m 0
 731 680 689 615 660 561 c 257
 355 680 l 258
 318 694 304 727 304 769 c 0
 304 838 329 893 363 950 c 257
 654 852 l 258
 711 833 731 796 731 753 c 0
EndSplineSet
EndChar

StartChar: seven
Encoding: 55 55 416
Width: 1148
VWidth: 0
Flags: HW
PickledData: "(dp1
S'org.robofab.postScriptHintData'
p2
(dp3
s."
LayerCount: 2
Fore
SplineSet
252 0 m 257
 401 0 l 257
 1082 1300 l 257
 1105 1428 l 257
 294 1428 l 257
 275 1319 l 257
 959 1319 l 257
 252 0 l 257
EndSplineSet
EndChar

StartChar: six
Encoding: 54 54 417
Width: 1148
VWidth: 0
Flags: HW
PickledData: "(dp1
S'org.robofab.postScriptHintData'
p2
(dp3
s."
LayerCount: 2
Fore
SplineSet
456 -20 m 257
 767 -20 933 113 984 404 c 256
 991 445 995 483 995 518 c 0
 995 727 864 822 611 822 c 257
 447 822 371 769 318 715 c 257
 363 721 l 257
 911 1428 l 257
 750 1428 l 257
 317 856 l 258
 185 682 116 541 92 404 c 256
 84 359 80 318 80 281 c 0
 80 75 201 -20 456 -20 c 257
477 100 m 256
 288 100 215 164 215 302 c 0
 215 332 218 367 225 404 c 256
 262 613 375 708 591 708 c 256
 771 708 858 638 858 491 c 0
 858 464 855 436 849 404 c 256
 812 196 715 100 477 100 c 256
EndSplineSet
EndChar

StartChar: slash
Encoding: 47 47 418
Width: 614
VWidth: 0
Flags: HW
PickledData: "(dp1
S'org.robofab.postScriptHintData'
p2
(dp3
s."
LayerCount: 2
Fore
SplineSet
-93 0 m 257
 60 0 l 257
 708 1500 l 257
 561 1500 l 257
 -93 0 l 257
EndSplineSet
EndChar

StartChar: softhyphen
Encoding: 173 173 420
Width: 1058
VWidth: 0
Flags: HW
AnchorPoint: "mid" 507 566 mark 0
LayerCount: 2
Fore
SplineSet
188 521 m 257
 802 521 l 257
 820 622 l 257
 206 622 l 257
 188 521 l 257
EndSplineSet
EndChar

StartChar: sterling
Encoding: 163 163 422
Width: 1266
VWidth: 0
Flags: HW
PickledData: "(dp1
S'org.robofab.postScriptHintData'
p2
(dp3
s."
LayerCount: 2
Fore
SplineSet
165 0 m 257
 854 0 l 257
 876 124 l 257
 323 124 l 257
 486 696 l 257
 987 696 l 257
 1006 807 l 257
 519 807 l 257
 615 1140 l 257
 672 1332 792 1355 865 1355 c 256
 984 1355 1101 1288 1099 1286 c 258
 1161 1388 l 257
 1017 1454 926 1465 863 1465 c 256
 687 1465 533 1304 489 1163 c 257
 388 807 l 257
 198 807 l 257
 179 696 l 257
 357 696 l 257
 165 0 l 257
EndSplineSet
EndChar

StartChar: summation
Encoding: 8721 8721 423
Width: 1079
VWidth: 0
Flags: HW
PickledData: "(dp1
S'org.robofab.postScriptHintData'
p2
(dp3
s."
LayerCount: 2
Fore
SplineSet
946 0 m 257
 967 120 l 257
 135 120 l 257
 707 750 l 257
 716 801 l 257
 331 1310 l 257
 1177 1310 l 257
 1198 1428 l 257
 228 1428 l 257
 211 1331 l 257
 606 762 l 257
 -5 107 l 257
 -24 0 l 257
 946 0 l 257
EndSplineSet
EndChar

StartChar: t
Encoding: 116 116 424
Width: 815
VWidth: 0
Flags: HW
PickledData: "(dp1
S'org.robofab.postScriptHintData'
p2
(dp3
s."
AnchorPoint: "bot" 328 37 basechar 0
AnchorPoint: "mid" 361 583 basechar 0
AnchorPoint: "top" 567 1203 basechar 0
AnchorPoint: "caron.alt" 221 1052 basechar 0
LayerCount: 2
Fore
SplineSet
572 -6 m 258
 591 -6 l 257
 624 104 l 257
 608 104 l 258
 425 104 343 135 343 239 c 0
 343 254 345 270 348 288 c 258
 463 940 l 257
 735 940 l 257
 754 1052 l 257
 482 1052 l 257
 538 1369 l 257
 428 1369 l 257
 351 1052 l 257
 163 1052 l 257
 144 940 l 257
 325 940 l 257
 208 280 l 258
 204 257 202 237 202 217 c 0
 202 57 332 -6 572 -6 c 258
EndSplineSet
EndChar

StartChar: thorn
Encoding: 254 254 429
Width: 1183
VWidth: 0
Flags: HW
PickledData: "(dp1
S'org.robofab.postScriptHintData'
p2
(dp3
s."
LayerCount: 2
Fore
SplineSet
20 -407 m 257
 157 -407 l 257
 236 44 l 257
 281 16 362 -24 501 -24 c 256
 761 -24 948 124 988 355 c 258
 1052 716 l 258
 1057 743 1059 768 1059 793 c 0
 1059 955 954 1065 713 1065 c 256
 593 1065 467 1020 399 969 c 257
 493 1500 l 257
 360 1500 l 257
 20 -407 l 257
515 88 m 256
 404 88 318 120 257 159 c 257
 372 814 l 257
 384 837 513 951 673 951 c 256
 812 951 921 886 921 770 c 0
 921 758 920 747 918 734 c 258
 846 326 l 258
 821 184 678 88 515 88 c 256
EndSplineSet
EndChar

StartChar: three
Encoding: 51 51 430
Width: 1148
VWidth: 0
Flags: HW
PickledData: "(dp1
S'org.robofab.postScriptHintData'
p2
(dp3
s."
LayerCount: 2
Fore
SplineSet
488 -20 m 256
 751 -20 913 112 960 381 c 256
 970 435 974 482 974 522 c 0
 974 687 895 738 759 761 c 257
 946 785 1010 886 1045 1085 c 256
 1052 1123 1055 1158 1055 1189 c 0
 1055 1396 913 1451 733 1451 c 256
 488 1451 288 1430 217 1020 c 257
 357 1020 l 257
 411 1321 503 1323 701 1323 c 258
 709 1323 l 258
 870 1323 916 1269 916 1175 c 0
 916 1149 913 1121 907 1089 c 258
 900 1048 l 257
 872 894 846 818 522 818 c 257
 501 699 l 257
 759 699 836 663 836 526 c 0
 836 485 829 436 818 375 c 256
 787 202 709 104 510 104 c 256
 322 104 230 116 230 303 c 0
 230 338 234 379 240 428 c 257
 100 428 l 257
 95 376 92 330 92 289 c 0
 92 39 194 -20 488 -20 c 256
EndSplineSet
Substitution2: "supsSuperscriptlookup11 subtable" uni00B3
EndChar

StartChar: threequarters
Encoding: 190 190 431
Width: 1546
VWidth: 0
Flags: HW
PickledData: "(dp1
S'org.robofab.postScriptHintData'
p2
(dp3
s."
LayerCount: 2
Fore
SplineSet
700 1041 m 0
 700 909 626 853 490 853 c 256
 370 853 321 877 321 989 c 0
 321 1001 322 1013 323 1027 c 257
 239 1027 l 257
 239 1018 239 1009 239 1000 c 0
 239 841 293 783 478 783 c 256
 640 783 792 863 792 1044 c 0
 792 1149 722 1172 657 1182 c 257
 735 1191 802 1227 822 1344 c 256
 824 1356 825 1368 825 1379 c 0
 825 1490 715 1526 609 1526 c 256
 446 1526 340 1509 298 1311 c 257
 377 1311 l 257
 409 1445 477 1457 596 1457 c 256
 682 1457 725 1428 725 1371 c 0
 725 1363 725 1356 723 1347 c 256
 707 1256 688 1216 493 1216 c 257
 481 1150 l 257
 646 1150 700 1126 700 1041 c 0
1326 0 m 257
 1412 0 l 257
 1449 205 l 257
 1578 205 l 257
 1590 273 l 257
 1461 273 l 257
 1498 484 l 257
 1412 484 l 257
 1375 273 l 257
 1086 273 l 257
 1425 783 l 257
 1338 783 l 257
 978 257 l 257
 969 205 l 257
 1363 205 l 257
 1326 0 l 257
397 0 m 257
 484 0 l 257
 1456 1428 l 257
 1375 1428 l 257
 397 0 l 257
EndSplineSet
Ligature2: "fracDiagonalFractionslookup12 subtable" three slash four
EndChar

StartChar: uni00B3
Encoding: 179 179 432
Width: 1124
VWidth: 0
Flags: HW
PickledData: "(dp1
S'org.robofab.postScriptHintData'
p2
(dp3
s."
LayerCount: 2
Fore
SplineSet
724 1036 m 0
 724 887 640 824 487 824 c 256
 352 824 296 851 296 978 c 0
 296 991 297 1005 298 1020 c 257
 204 1020 l 257
 204 1009 203 999 203 989 c 0
 203 811 265 745 473 745 c 256
 654 745 827 834 827 1037 c 0
 827 1156 749 1183 674 1194 c 257
 763 1205 838 1245 862 1377 c 256
 864 1390 865 1403 865 1415 c 0
 865 1542 740 1582 621 1582 c 256
 437 1582 317 1563 270 1340 c 257
 359 1340 l 257
 396 1491 472 1504 607 1504 c 256
 704 1504 752 1472 752 1408 c 0
 752 1399 751 1390 749 1380 c 256
 731 1278 710 1233 490 1233 c 257
 477 1158 l 257
 663 1158 724 1132 724 1036 c 0
EndSplineSet
EndChar

StartChar: tilde
Encoding: 732 732 433
Width: 364
VWidth: 0
Flags: HW
PickledData: "(dp1
S'org.robofab.postScriptHintData'
p2
(dp3
s."
AnchorPoint: "top" 131 1052 mark 0
LayerCount: 2
Fore
SplineSet
310 1420 m 257
 178 1420 125 1310 54 1310 c 256
 20 1310 0 1337 0 1380 c 0
 0 1389 1 1398 3 1408 c 257
 -81 1408 l 257
 -86 1381 -88 1357 -88 1337 c 0
 -88 1242 -38 1212 53 1212 c 256
 180 1212 244 1310 297 1322 c 256
 302 1323 306 1324 310 1324 c 256
 342 1324 361 1295 361 1252 c 0
 361 1243 361 1235 359 1225 c 257
 443 1225 l 257
 447 1248 449 1269 449 1288 c 0
 449 1380 356 1377 310 1420 c 257
EndSplineSet
EndChar

StartChar: trademark
Encoding: 8482 8482 434
Width: 1843
VWidth: 0
Flags: HW
PickledData: "(dp1
S'org.robofab.postScriptHintData'
p2
(dp3
s."
LayerCount: 2
Fore
SplineSet
797 766 m 257
 898 766 l 257
 1007 1383 l 257
 1118 931 l 257
 1279 931 l 257
 1543 1383 l 257
 1434 766 l 257
 1537 766 l 257
 1657 1446 l 257
 1473 1446 l 257
 1207 991 l 257
 1103 1446 l 257
 917 1446 l 257
 797 766 l 257
303 766 m 257
 402 766 l 257
 505 1350 l 257
 735 1350 l 257
 752 1446 l 257
 193 1446 l 257
 176 1350 l 257
 406 1350 l 257
 303 766 l 257
EndSplineSet
EndChar

StartChar: two
Encoding: 50 50 435
Width: 1148
VWidth: 0
Flags: HW
PickledData: "(dp1
S'org.robofab.postScriptHintData'
p2
(dp3
s."
LayerCount: 2
Fore
SplineSet
53 0 m 257
 890 0 l 257
 911 116 l 257
 230 116 l 257
 757 603 l 257
 909 742 1041 829 1082 1058 c 256
 1088 1095 1092 1131 1092 1165 c 0
 1092 1330 1004 1451 710 1451 c 256
 400 1451 228 1345 175 1043 c 257
 312 1043 l 257
 351 1267 451 1323 687 1323 c 256
 877 1323 952 1267 952 1139 c 0
 952 1114 949 1087 944 1056 c 256
 915 890 834 837 643 660 c 258
 67 124 l 257
 53 0 l 257
EndSplineSet
Substitution2: "supsSuperscriptlookup11 subtable" uni00B2
EndChar

StartChar: uni00B2
Encoding: 178 178 436
Width: 927
VWidth: 0
Flags: HW
PickledData: "(dp1
S'org.robofab.postScriptHintData'
p2
(dp3
s."
LayerCount: 2
Fore
SplineSet
158 762 m 257
 662 762 l 257
 676 838 l 257
 300 838 l 257
 575 1070 l 258
 669 1149 744 1220 767 1348 c 256
 771 1370 773 1391 773 1412 c 0
 773 1507 726 1585 568 1585 c 256
 359 1585 275 1518 247 1359 c 257
 345 1359 l 257
 369 1498 451 1505 555 1505 c 256
 641 1505 678 1467 678 1395 c 0
 678 1381 677 1365 674 1348 c 256
 658 1261 636 1226 529 1133 c 257
 170 826 l 257
 158 762 l 257
EndSplineSet
EndChar

StartChar: u
Encoding: 117 117 437
Width: 1194
VWidth: 0
Flags: HW
PickledData: "(dp1
S'org.robofab.postScriptHintData'
p2
(dp3
s."
AnchorPoint: "ogonek" 858 0 basechar 0
AnchorPoint: "top" 704 1052 basechar 0
LayerCount: 2
Fore
SplineSet
1092 1052 m 257
 954 1052 l 257
 817 277 l 258
 799 177 689 88 461 88 c 256
 319 88 269 142 269 220 c 0
 269 233 270 247 273 261 c 258
 413 1052 l 257
 275 1052 l 257
 136 268 l 258
 132 244 130 222 130 200 c 0
 130 73 206 -20 441 -20 c 256
 603 -20 711 29 789 120 c 257
 790 12 l 257
 908 12 l 257
 1092 1052 l 257
EndSplineSet
EndChar

StartChar: underscore
Encoding: 95 95 448
Width: 944
VWidth: 0
Flags: HW
PickledData: "(dp1
S'org.robofab.postScriptHintData'
p2
(dp3
s."
LayerCount: 2
Fore
SplineSet
6 -147 m 257
 917 -147 l 257
 941 -12 l 257
 30 -12 l 257
 6 -147 l 257
EndSplineSet
EndChar

StartChar: uni0307
Encoding: 775 775 464
Width: 299
VWidth: 0
Flags: HW
PickledData: "(dp1
S'org.robofab.postScriptHintData'
p2
(dp3
s."
AnchorPoint: "top" 106 1052 mark 0
LayerCount: 2
Fore
SplineSet
48 1327 m 257
 241 1327 l 257
 277 1535 l 257
 84 1535 l 257
 48 1327 l 257
EndSplineSet
EndChar

StartChar: uni030F
Encoding: 783 783 465
Width: 1024
VWidth: 0
Flags: HW
PickledData: "(dp1
S'org.robofab.postScriptHintData'
p2
(dp3
s."
AnchorPoint: "top" 565 1052 mark 0
LayerCount: 2
Fore
SplineSet
568 1605 m 257
 736 1215 l 257
 831 1215 l 257
 747 1605 l 257
 568 1605 l 257
173 1605 m 257
 391 1215 l 257
 491 1215 l 257
 357 1605 l 257
 173 1605 l 257
EndSplineSet
EndChar

StartChar: uni0311
Encoding: 785 785 466
Width: 474
VWidth: 0
Flags: HW
PickledData: "(dp1
S'org.robofab.postScriptHintData'
p2
(dp3
s."
AnchorPoint: "top" 197 1052 mark 0
LayerCount: 2
Fore
SplineSet
12 1246 m 257
 127 1246 l 257
 136 1297 188 1330 235 1330 c 256
 277 1330 313 1303 313 1260 c 0
 313 1255 313 1251 312 1246 c 257
 428 1246 l 257
 429 1252 430 1260 430 1267 c 0
 430 1333 383 1430 252 1430 c 256
 106 1430 23 1310 12 1246 c 257
EndSplineSet
EndChar

StartChar: uni0358
Encoding: 856 856 469
Width: 600
VWidth: 0
Flags: HW
PickledData: "(dp1
S'org.robofab.postScriptHintData'
p2
(dp3
s."
AnchorPoint: "top" 248 1052 mark 0
LayerCount: 2
Fore
SplineSet
181 1279 m 257
 374 1279 l 257
 410 1487 l 257
 217 1487 l 257
 181 1279 l 257
EndSplineSet
EndChar

StartChar: v
Encoding: 118 118 474
Width: 1064
VWidth: 0
Flags: HW
PickledData: "(dp1
S'org.robofab.postScriptHintData'
p2
(dp3
s."
LayerCount: 2
Fore
SplineSet
397 0 m 257
 528 0 l 257
 1095 1052 l 257
 955 1052 l 257
 493 160 l 257
 294 1052 l 257
 155 1052 l 257
 397 0 l 257
EndSplineSet
EndChar

StartChar: w
Encoding: 119 119 475
Width: 1567
VWidth: 0
Flags: HW
PickledData: "(dp1
S'org.robofab.postScriptHintData'
p2
(dp3
s."
AnchorPoint: "top" 879 1052 basechar 0
LayerCount: 2
Fore
SplineSet
259 0 m 257
 389 0 l 257
 845 907 l 257
 987 0 l 257
 1107 0 l 257
 1618 1052 l 257
 1491 1052 l 257
 1082 188 l 257
 949 1052 l 257
 792 1052 l 257
 365 182 l 257
 258 1052 l 257
 135 1052 l 257
 259 0 l 257
EndSplineSet
EndChar

StartChar: x
Encoding: 120 120 480
Width: 1019
VWidth: 0
Flags: HW
PickledData: "(dp1
S'org.robofab.postScriptHintData'
p2
(dp3
s."
LayerCount: 2
Fore
SplineSet
-23 0 m 257
 103 0 l 257
 499 442 l 257
 738 0 l 257
 869 0 l 257
 581 534 l 257
 1048 1052 l 257
 924 1052 l 257
 536 623 l 257
 304 1052 l 257
 172 1052 l 257
 452 529 l 257
 -23 0 l 257
EndSplineSet
EndChar

StartChar: y
Encoding: 121 121 481
Width: 1117
VWidth: 0
Flags: HW
PickledData: "(dp1
S'org.robofab.postScriptHintData'
p2
(dp3
s."
AnchorPoint: "top" 715 1052 basechar 0
LayerCount: 2
Fore
SplineSet
90 -371 m 257
 105 -372 120 -372 135 -372 c 256
 396 -372 516 -223 622 -12 c 257
 1172 1052 l 257
 1030 1052 l 257
 568 134 l 257
 379 1052 l 257
 218 1052 l 257
 485 -15 l 257
 416 -173 277 -259 148 -259 c 256
 139 -259 130 -259 122 -258 c 257
 90 -371 l 257
EndSplineSet
EndChar

StartChar: yen
Encoding: 165 165 485
Width: 1326
VWidth: 0
Flags: HW
PickledData: "(dp1
S'org.robofab.postScriptHintData'
p2
(dp3
s."
LayerCount: 2
Fore
SplineSet
1040 529 m 257
 1059 636 l 257
 219 636 l 257
 200 529 l 257
 1040 529 l 257
991 251 m 257
 1010 357 l 257
 170 357 l 257
 151 251 l 257
 991 251 l 257
EndSplineSet
Refer: 162 89 N 1 0 0 1 0 0 2
EndChar

StartChar: z
Encoding: 122 122 489
Width: 925
VWidth: 0
Flags: HW
PickledData: "(dp1
S'org.robofab.postScriptHintData'
p2
(dp3
s."
AnchorPoint: "bot" 442 0 basechar 0
AnchorPoint: "top" 592 1052 basechar 0
LayerCount: 2
Fore
SplineSet
52 0 m 257
 739 0 l 257
 756 97 l 257
 209 97 l 257
 899 950 l 257
 917 1052 l 257
 265 1052 l 257
 246 946 l 257
 751 946 l 257
 70 101 l 257
 52 0 l 257
EndSplineSet
EndChar

StartChar: zero
Encoding: 48 48 493
Width: 1148
VWidth: 0
Flags: HW
PickledData: "(dp1
S'org.robofab.postScriptHintData'
p2
(dp3
s."
LayerCount: 2
Fore
SplineSet
461 100 m 256
 287 100 211 174 211 381 c 0
 211 462 223 564 245 690 c 257
 250 722 l 257
 332 1182 435 1329 677 1329 c 256
 851 1329 928 1254 928 1044 c 0
 928 960 916 854 892 722 c 257
 887 690 l 257
 808 243 705 100 461 100 c 256
440 -20 m 256
 793 -20 940 153 1037 688 c 256
 1063 837 1077 960 1077 1060 c 0
 1077 1346 831 1313 698 1448 c 257
 354 1448 208 1269 106 715 c 257
 81 573 68 455 68 359 c 0
 68 79 180 -20 440 -20 c 256
EndSplineSet
EndChar

